<?xml version="1.0" encoding="utf-8"?>
<!-- Generator: Adobe Illustrator 27.5.0, SVG Export Plug-In . SVG Version: 6.00 Build 0)  -->
<svg version="1.1" xmlns="http://www.w3.org/2000/svg" xmlns:xlink="http://www.w3.org/1999/xlink" x="0px" y="0px"
	 viewBox="0 0 500 500" style="enable-background:new 0 0 500 500;" xml:space="preserve">
<g id="BACKGROUND">
	<rect style="fill:#91CAF9;" width="500" height="500"/>
</g>
<g id="OBJECTS">
	<g>
		<path style="fill:#B8E2FF;" d="M500,230.945c0,0-14.099-8.17-28.333,4.085c-14.234,12.255-13.215,23.953-13.215,23.953
			s-5.607-6.175-18.122,0c-12.515,6.175-13.536,16.32-13.536,16.32l-71.744,5.69h72.475c0,0-8.962,2.209-9.415,14.803
			c0,0-11.233-3.064-22.211,0c-10.978,3.064-14.52,14.08-14.52,14.08s-23.01-13.569-44.457-11.527
			c-21.447,2.043-27.064,8.802-27.064,8.802s-9.606-11.866-19.101-13.908h18.08l-31.576-7.552c0,0-7.754-15.442-27.261-17.687
			c-19.507-2.245-30.543,7.378-33.343,12.989c0,0-13.669-6.998-24.757,0c-11.088,6.998-9.702,22.973-9.702,22.973
			s-21.957-3.569-30.638,8.684c0,0-16.017-10.317-32.681-5.499c0,0-11.234-22.078-24.511-19.015c0,0-9.164-26.423-33.689-32.28
			h46.965l-61.277-8.571c0,0,0.856-14.766-16.676-17.85c0,0-2.018-39.54-29.692-42.249V452.19h500V230.945z"/>
		<path style="fill:#6696CE;" d="M500,329.652c0,0-19.078-28.09-45.121-35.441c-26.043-7.351-67.652,44.533-67.652,44.533
			s-23.146-21.415-37.491-25.16c-14.346-3.745-72.475,60.401-72.475,60.401s-78.051-84.543-105.323-89.281
			c-27.272-4.738-68.633,54.039-68.633,54.039s-31.404-25.337-62.809-21.759C9.092,320.562,0,338.744,0,338.744L0,500h500V329.652z"
			/>
		<path style="fill:#819335;" d="M500,359.016c0,0-5.381-8.408-22.187-9.613c-16.806-1.205-27.755,15.999-27.755,15.999
			s5.34-6.005-9.728-8.03c-15.068-2.025-14.047,18.605-14.047,18.605s-4.142-8.331-17.569-3.181
			c-13.427,5.151-7.704,23.391-7.704,23.391s-18.404-5.143-22.276,9.144s-3.871,14.288-3.871,14.288s-16.616-15.637-41.318,4.745
			c0,0-7.059-13.358-18.422-5.987c0,0,7.227-21.266-9.037-26.268c-16.263-5.003-27.543,12.322-27.543,12.322
			s1.41-24.949-17.857-20.709c-19.267,4.24-14.563,21.609-14.563,21.609s-17.609-12.778-25.959,2.63c-8.35,15.407,0,22.071,0,22.071
			s-13.456-7.144-28.775,4.532c0,0-12.391-18.116-38.876-21.092c0,0,9.124-21.455,0-23.96c-9.124-2.505-18.315,10.224-18.315,10.224
			s-5.106-22.895-16.34-28.025c-11.234-5.13-20.426,12.012-20.426,12.012s-11.234-20.403-27.574-17.24
			c-16.34,3.162-11.187,27.901-11.187,27.901s-12.302-1.401-20.473,7.866c-8.17,9.267-4.085,19.649-4.085,19.649
			S15.929,403.196,0,402.25l0,57.726h500V359.016z"/>
		<rect y="429.518" style="fill:#C2E065;" width="500" height="30.458"/>
		<rect y="444.747" style="fill:#B0C14C;" width="500" height="15.229"/>
		<path style="fill:#B8E2FF;" d="M36.065,125.979h149.708l-30.638-4.144c0,0-3.064-13.801-16.851-17.196
			c-13.787-3.395-18.894,2.222-18.894,2.222s-0.511-21.959-23.489-29.363c-22.979-7.403-31.66,24.241-31.66,24.241
			s-3.064-7.266-16.34-0.561C34.624,107.881,36.065,125.979,36.065,125.979z"/>
		<path style="fill:#B8E2FF;" d="M388.927,60.427h91.007c0,0-4.682-19.928-22.328-23.496c-17.646-3.568-26.838,11.748-26.838,11.748
			s-5.617-10.209-15.319-6.635c-9.702,3.575-10.065,13.277-10.065,13.277L388.927,60.427z"/>
		<path style="fill:#B8E2FF;" d="M0,23.115h166.879l-46.468-7.66c0,0-7.66-11.234-24.511-12.255
			C79.05,2.179,71.576,8.307,71.576,8.307S62.199,0,50.454,0H0L0,23.115z"/>
		<rect y="459.976" style="fill:#5E5E5E;" width="500" height="40.024"/>
	</g>
	<g>
		<path style="opacity:0.3;fill:#5E5E5E;" d="M453.718,470.813H0v9.468h453.718c2.615,0,4.734-2.12,4.734-4.734l0,0
			C458.452,472.932,456.333,470.813,453.718,470.813z"/>
		<path style="fill:#C8E2ED;" d="M440.33,403.224c0,10.87-22.22,51.06-22.22,51.06H0v-274.57c74.2,0,134.06,4.44,180.72,23.97
			c23.81,9.96,117.39,87.61,117.39,87.61s64.85,14.8,110.05,37.83c4.9,2.5,11.58,14.67,17.59,28.56c0.33,0.77-0.84,1.85-0.84,1.85
			l6.79,18.31c0,0,2.49,1.72,2.73,2.42C437.98,390.694,440.33,399.584,440.33,403.224z"/>
		<path style="opacity:0.5;fill:#C8E2ED;" d="M0,361.634c0,0,207.484,0,282.794,0s142.189,32.094,149.106,40.414
			c6.917,8.32-13.79,52.236-13.79,52.236H0V361.634z"/>
		<path style="fill:#83A5B2;" d="M418.11,454.284H0v-8.14h290.76c0,0-2.86-4.88-2.86-32.89c0-28.01,20.52-61.64,61.84-61.64
			c49.99,0,60.71,42.67,62.25,61.64c1.53,18.97-7.15,32.89-7.15,32.89L418.11,454.284z"/>
		<g>
			<defs>
				<path id="SVGID_1_" d="M12.156,197.332c0,0,10.213,134.808,21.957,169.021c11.745,34.213,54.57,68.022,54.57,68.022h147.643
					c0,0,10.077-90.935,33.238-138.002c0,0-63.365-63.015-100.131-81.539C132.667,196.311,12.156,197.332,12.156,197.332z"/>
			</defs>
			<clipPath id="SVGID_00000153671987741354975150000016822813669335933857_">
				<use xlink:href="#SVGID_1_"  style="overflow:visible;"/>
			</clipPath>
			<g style="clip-path:url(#SVGID_00000153671987741354975150000016822813669335933857_);">
				<path style="fill:#91CAF9;" d="M282.79,309.164c-5.9,4.9-11.43,13.61-16.49,24.24c-18.11,38.14-29.97,100.97-29.97,100.97H88.68
					c0,0-42.82-33.81-54.57-68.02c-4.67-13.59-9.09-43.08-12.73-73.67c-5.51-46.4-9.22-95.35-9.22-95.35s120.51-1.02,157.27,17.5
					C206.2,233.354,282.79,309.164,282.79,309.164z"/>
				<path style="fill:#79B1E0;" d="M266.3,333.404c-18.11,38.14-29.97,100.97-29.97,100.97H88.68c0,0-42.82-33.81-54.57-68.02
					c-4.67-13.59-9.09-43.08-12.73-73.67c5.18-2.12,11.5-3.85,19.12-4.72c31.4-3.57,62.8,21.76,62.8,21.76s41.37-58.78,68.64-54.04
					C192.89,259.324,243.83,310.084,266.3,333.404z"/>
				<g>
					
						<line style="fill:none;stroke:#FFFFFF;stroke-width:2;stroke-linecap:round;stroke-linejoin:round;stroke-miterlimit:10;" x1="5.518" y1="220.983" x2="111.22" y2="220.983"/>
					
						<line style="fill:none;stroke:#FFFFFF;stroke-width:2;stroke-linecap:round;stroke-linejoin:round;stroke-miterlimit:10;" x1="58.177" y1="233.878" x2="163.879" y2="233.878"/>
					
						<line style="fill:none;stroke:#FFFFFF;stroke-width:2;stroke-linecap:round;stroke-linejoin:round;stroke-miterlimit:10;" x1="58.177" y1="297.631" x2="163.879" y2="297.631"/>
					
						<line style="fill:none;stroke:#FFFFFF;stroke-width:2;stroke-linecap:round;stroke-linejoin:round;stroke-miterlimit:10;" x1="177.092" y1="233.878" x2="184.241" y2="233.878"/>
					
						<line style="fill:none;stroke:#FFFFFF;stroke-width:2;stroke-linecap:round;stroke-linejoin:round;stroke-miterlimit:10;" x1="147.475" y1="261.374" x2="216.658" y2="261.374"/>
					
						<line style="fill:none;stroke:#FFFFFF;stroke-width:2;stroke-linecap:round;stroke-linejoin:round;stroke-miterlimit:10;" x1="140.86" y1="261.374" x2="136.752" y2="261.374"/>
					
						<line style="fill:none;stroke:#FFFFFF;stroke-width:2;stroke-linecap:round;stroke-linejoin:round;stroke-miterlimit:10;" x1="171.938" y1="297.631" x2="189.348" y2="297.631"/>
					
						<line style="fill:none;stroke:#FFFFFF;stroke-width:2;stroke-linecap:round;stroke-linejoin:round;stroke-miterlimit:10;" x1="308.326" y1="316.999" x2="197.007" y2="316.999"/>
					
						<line style="fill:none;stroke:#FFFFFF;stroke-width:2;stroke-linecap:round;stroke-linejoin:round;stroke-miterlimit:10;" x1="163.879" y1="316.999" x2="159.255" y2="316.999"/>
					
						<line style="fill:none;stroke:#FFFFFF;stroke-width:2;stroke-linecap:round;stroke-linejoin:round;stroke-miterlimit:10;" x1="118.879" y1="316.999" x2="111.028" y2="316.999"/>
					
						<line style="fill:none;stroke:#FFFFFF;stroke-width:2;stroke-linecap:round;stroke-linejoin:round;stroke-miterlimit:10;" x1="277.261" y1="360.349" x2="118.879" y2="360.349"/>
					
						<line style="fill:none;stroke:#FFFFFF;stroke-width:2;stroke-linecap:round;stroke-linejoin:round;stroke-miterlimit:10;" x1="171.938" y1="342.353" x2="216.658" y2="342.353"/>
					
						<line style="fill:none;stroke:#FFFFFF;stroke-width:2;stroke-linecap:round;stroke-linejoin:round;stroke-miterlimit:10;" x1="194.298" y1="390.864" x2="260.687" y2="390.864"/>
				</g>
				<path style="fill:#456A82;" d="M33.835,319.034c0,0-15.381-91.575-17.084-118.468c0,0,118.468-3.064,164.426,18.383
					c0,0-37.436-23.721-104.165-26.839c-66.729-3.118-72.516,0-72.516,0l14.638,136.381L33.835,319.034z"/>
				<path style="fill:#456A82;" d="M253.688,337.276c0,0-27.835,55.891-33.525,60.056c-5.69,4.166-172.443,3.745-172.443,3.745
					l29.292,42.765l176.676-2.803l23.235-97.834L253.688,337.276z"/>
				<g>
					<path style="fill:#B06A50;" d="M114.209,255.305l-2.479,3.133c0,0-0.34-3.875-1.702-3.98c-1.362-0.105-0.511,2.393-2.383,5.229
						c-1.872,2.836-4.255,6.635-2.894,9.488l-11.404,23.817L75.47,281.247c0,0-5.983,18.368-5.117,18.801
						c0.866,0.433,23.505,11.326,23.845,10.816c0.34-0.511,23.489-52.936,23.489-52.936L114.209,255.305z"/>
					<path style="fill:#233E54;" d="M124.1,249.974l-9.05,22.42l-6.21-3.22l0.09-0.23l7.76-20.05c0.29-0.74,1.04-1.19,1.82-1.09
						l4.59,0.55h0.04C123.92,248.444,124.39,249.254,124.1,249.974z"/>
					<path style="fill:#466A82;" d="M123.08,249.164l-9.05,22.42l-5.1-2.64l7.76-20.05c0.29-0.74,1.04-1.19,1.82-1.09l4.59,0.55
						C123.19,248.604,123.19,248.894,123.08,249.164z"/>
					<polygon style="fill:#B06A50;" points="62.262,261.843 63.73,274.439 50.523,277.162 46.513,254.458 					"/>
					<g>
						<path style="fill:#402211;" d="M42.001,227.162c0,0,5.495-5.49,10.557-6.331c5.062-0.841,16.683-1.499,23.612,8.184
							c6.928,9.684,0.655,36.525,0.655,36.525l-13.046,0.599C63.778,266.14,38.713,237.458,42.001,227.162z"/>
						<path style="fill:#CC8867;" d="M38.036,237.911c-1.433-14.175,15.894-12.081,26.957-10.496
							c11.064,1.585,4.873,14.548,7.558,19.703c2.04,3.916,8.978,0.901-0.092,7.334c0,0-0.269,8.999-2.556,12.458
							S40.512,262.404,38.036,237.911z"/>
						<path style="fill:none;stroke:#402211;stroke-linecap:round;stroke-linejoin:round;stroke-miterlimit:10;" d="M61.476,239.385
							c0,0,3.341-2.259,9.612-1.804"/>
						<path style="fill:#402211;" d="M68.267,244.333c0.046,1.084-0.366,1.981-0.919,2.004c-0.553,0.023-1.038-0.836-1.084-1.92
							c-0.046-1.084,0.366-1.981,0.918-2.004C67.736,242.389,68.221,243.249,68.267,244.333z"/>
						<path style="fill:none;stroke:#402211;stroke-linecap:round;stroke-linejoin:round;stroke-miterlimit:10;" d="M71.564,257.067
							c0,0-5.727,0.341-9.302-1.762"/>
						<path style="fill:#402211;" d="M33.836,240.765c0.029-3.776-0.372-11.146,4.783-14.817c8.292-5.906,24.89-4.127,28.14-2.453
							c3.25,1.674-12.118,19.456-12.118,19.456l-1.039,5.959c0,0-5.166,0.452-5.086,4.611c0.08,4.159,4.881,14.567,4.881,14.567
							l-13.887,2.606C39.512,270.694,33.735,253.807,33.836,240.765z"/>
						<path style="fill:#CC8867;" d="M53.112,252.618c0,0-1.984,4.206-5.565-0.098c-3.581-4.303-4.527-11.956-0.317-11.685
							c4.21,0.27,4.799,1.889,5.446,3.138C53.68,245.911,55.057,250.812,53.112,252.618z"/>
						<path style="fill:none;stroke:#9A5A41;stroke-linecap:round;stroke-linejoin:round;stroke-miterlimit:10;" d="M46.946,246.271
							c0,0-1.452-2.827,0.968-3.036c2.42-0.209,5.577,6.62,4.317,8.162c-1.26,1.542-3.052,0.818-3.06-1.465
							c-0.008-2.282,2.129-2.194,2.129-2.194"/>
					</g>
					<path style="fill:#402211;" d="M106.624,329.247c0,0,60.936-1.702,71.83,0c10.894,1.702,45.262,61.492,54.698,69.106
						l-9.421,10.553c0,0-46.409-36.085-53.843-51.064c0,0-62.848,26.232-90.46-3.565L106.624,329.247z"/>
					<polygon style="fill:#FFFFFF;" points="117.688,248.538 122.135,249.162 114.742,267.609 111.028,266.396 					"/>
					<path style="fill:#F2C261;" d="M112.41,328.494c0,0-12.82,23.4-23.13,32.96c-0.58,0.55-1.16,1.05-1.72,1.49
						c0,0-3.44-2.32-8.41-8.52c-4.97-6.21-11.45-16.31-17.54-31.86c-6.38-13.58-12.33-29.77-13.62-44.82
						c-0.21-2.38-0.3-4.74-0.26-7.05c0,0,14.22,1.02,19.54,4.08c5.31,3.07,21.65,8.86,24.72,19.41c1.19,4.1,2.84,9.38,4.74,14.67
						c1.97,5.5,4.21,11.01,6.47,15.2c0.93,1.74,1.87,3.25,2.8,4.44H112.41z"/>
					<path style="fill:#CC8867;" d="M107.305,275.63c0,0-2.043-5.181-1.872-7.952c0.17-2.771,2.553-4.644,3.234-5.835
						c0.681-1.191,1.021-3.234,1.021-3.234s1.362-0.511,1.702,1.872c0.34,2.383-1.191,7.075-0.681,7.197
						c0.511,0.122,10.894-11.258,10.894-11.258s2.894-0.024,3.064,1.678c0.17,1.702-1.532,5.277-1.532,5.277s0.511,3.574,0.17,6.298
						c-0.34,2.723-11.27,12.408-10.894,12.255C112.787,281.775,107.305,275.63,107.305,275.63z"/>
					<path style="fill:#FFFFFF;" d="M218.121,408.906l6.103,4.35l4.698,12.842l48-17.191c0,0,0.255-5.277-9.191-5.021
						c-9.447,0.255-32.903-5.872-34.58-8.681s-3.207,3.83-3.207,3.83S223.305,400.056,218.121,408.906z"/>
					<path style="fill:#D5A73E;" d="M59.54,307.924c5.85,14.94,16.94,40.11,29.74,53.53c-0.58,0.55-1.16,1.05-1.72,1.49
						c0,0-3.44-2.32-8.41-8.52c-4.97-6.21-11.45-16.31-17.54-31.86c-6.38-13.58-12.33-29.77-13.62-44.82
						c5.991,1.783,14.56-0.302,23.085,4.152c7.719,4.032,17.166,16.181,21.665,19.854c2.474,2.019-2.204,7.7-0.92,8.174
						c1.85,0.69,3.49,0.12,4.91-1.07c1.97,5.5,4.21,11.01,6.47,15.2C91.51,329.024,73.16,318.174,59.54,307.924z"/>
					<path style="fill:#598096;" d="M3.22,236.28c0,0,73.792,23.812,101.233,86.59l1.548,5.624c0,0-30.405-65.639-102.78-85.831
						V236.28z"/>
					<path style="fill:#CC8867;" d="M54.439,275.495c4.789-3.715,10.733-0.122,15.645,6.195c4.912,6.317,26.256,27.607,27.925,30.05
						c1.67,2.444-1.939,7.751-6.926,9.452c-4.987,1.701-31.919-24.825-36.494-31.271C50.015,283.474,54.439,275.495,54.439,275.495z
						"/>
					<path style="fill:#CC8867;" d="M91.351,304.508l16.188-32.117l7.203,3.239c0,0-12.848,41.054-16.568,45.923
						c-3.72,4.87-14.719-5.331-14.719-5.331L91.351,304.508z"/>
					<path style="fill:#F2C261;" d="M54.094,273.992c5.038-5.087,15.429,6.063,26.828,17.978l-14.009,14.979
						C66.913,306.949,40.883,287.333,54.094,273.992z"/>
				</g>
				<path style="fill:#FFFFFF;" d="M226.028,274.353c0,0-9.957,17.702-10.298,29.362l5.532,1.447l9.702-26.128L226.028,274.353z"/>
				<path style="fill:#598096;" d="M286.37,306.944l-19.75,45.79l-27.91-12.83c-5.79-14.2-26.55-32.1-25.87-35.51
					c0.06-0.28,0.18-0.74,0.36-1.35l3.46-1.29l9.45-23.74l-2.81-4.28c0.48-1.35,0.77-2.15,0.77-2.15
					C255.73,280.304,286.37,306.944,286.37,306.944z"/>
				<g>
					<path style="fill:#233E54;" d="M195.47,374.524c0.06,1.08-0.45,2.59-1.38,4.38c-4.96,9.48-22.11,26.85-33,30
						c-12.93,3.75-123.14,0-123.14,0s-9.1-9.78-0.54-20.62c-4.4-18.41-34.21-145.6-20.32-159.8c0,0,2.69-0.23,6.05-0.18
						c0,0,0,0,0.01,0c3.64,0.06,8.06,0.47,10.68,1.88c5.05,2.72,10.06,25.09,10.62,29.91c0.56,4.81-4.94,10.6-4.94,10.6
						s9.59,0.68,14.18,6.47c4.59,5.78,5.27,37.49,10.04,44.1c4.45,6.18,29.97,28.8,35.69,42.32c5.4-1.88,12.7-3.62,18.27-1.95
						c10.04,3.02,60.08-6.51,63.15-5.83C183.9,356.484,195.13,367.714,195.47,374.524z"/>
					<path style="fill:#2B4B60;" d="M195.47,374.524c0.06,1.08-0.45,2.59-1.38,4.38c-2.73,0.99-4.94,0.92-5.51-1.45
						c-1.73-7.24-7.15-13.4-12.76-12.89c-5.62,0.51-48.77,9.7-60.77,8.17s-26.81,4.72-26.81,4.72s0.77-4.97-2.04-10.33
						c-2.81-5.37-29.11-35.49-32.11-38.63c-2.99-3.14-5.93-46.4-7.58-49.46c-1.64-3.06-12.68-6.3-12.68-6.3s4.37-8,4.12-9.53
						c-0.24-1.53-4.11-22.44-5.37-26.81c-1.23-4.3-9.19-7.97-9.43-8.09c3.64,0.06,8.06,0.47,10.68,1.88
						c5.05,2.72,10.06,25.09,10.62,29.91c0.56,4.81-4.94,10.6-4.94,10.6s9.59,0.68,14.18,6.47c4.59,5.78,5.27,37.49,10.04,44.1
						c4.45,6.18,29.97,28.8,35.69,42.32c5.4-1.88,12.7-3.62,18.27-1.95c10.04,3.02,60.08-6.51,63.15-5.83
						C183.9,356.484,195.13,367.714,195.47,374.524z"/>
				</g>
				<path style="fill:#598096;" d="M48.667,259.375C24.626,243.193,3.22,236.28,3.22,236.28v6.383
					c17.569,4.902,32.658,12.485,45.447,21.154V259.375z"/>
			</g>
		</g>
		<circle style="fill:#233E54;" cx="349.736" cy="413.257" r="58.979"/>
		<circle style="fill:#C8E2ED;" cx="349.736" cy="413.257" r="51.622"/>
		<path style="opacity:0.5;fill:#C8E2ED;" d="M401.36,413.254c0,28.51-23.11,51.62-51.62,51.62c-28.51,0-51.63-23.11-51.63-51.62
			c0-8.84,2.22-17.17,6.14-24.44c3,25.65,24.81,45.56,51.27,45.56c19.67,0,36.77-11,45.49-27.18
			C401.24,409.184,401.36,411.204,401.36,413.254z"/>
		<path style="fill:#233E54;" d="M319.57,296.794c-9.69,4.66-44.78-3.29-44.78-3.29c-89.19-83.07-113.02-85.11-113.02-85.11
			C122.62,194.094,0,193.754,0,193.754v-14.04c133.38,0.59,173.35,16.43,213.86,39.58c37.48,21.41,96.1,69.54,104.65,76.62
			C319.21,296.494,319.57,296.794,319.57,296.794z"/>
		<path style="fill:#52D2FF;" d="M434.43,380.264c-5.59-1.52-13.38-3.57-22.1-5.74c0,0-12.26-28.6-14.98-31.32
			c-2.73-2.72-28.26-9.87-50.73-13.62l9.2-5.44c0,0,24.34,2.72,52.89,14.63c0,0,6.34,7.15,10.76,17.37l6.28,1.54
			c0.33,0.77-0.84,1.85-0.84,1.85l6.79,17.92C431.7,377.454,434.19,379.564,434.43,380.264z"/>
		<path style="fill:#FFFFFF;" d="M431.7,377.454c-4.99-1.33-11.18-2.94-17.93-4.63c-2.75-6.4-12.31-28.33-15.01-31.03
			c-3.28-3.28-26.91-9.59-46.47-13.24l3.96-2.34c4.02,0.53,26.06,3.78,51.25,14.23c1.27,1.51,6.43,7.93,10.14,16.49l0.39,0.91
			l6.88,1.69C426.6,363.844,429.33,370.904,431.7,377.454z"/>
		<path style="opacity:0.5;fill:#FFFFFF;" d="M296.58,293.164c-49.59-47.25-92.27-75.37-93.59-76.24
			c23.11,16.42,46.27,43.05,46.99,43.88c-37.72-37.1-69.14-54.11-97.06-63.48c-23.83-8-124.12-11.39-152.92-12.22v-5.39
			c133.38,0.59,173.35,16.43,213.86,39.58c37.48,21.41,96.1,69.54,104.65,76.62C305.09,295.584,296.58,293.164,296.58,293.164z"/>
		<g>
			
				<line style="fill:none;stroke:#FFFFFF;stroke-width:2;stroke-linecap:round;stroke-linejoin:round;stroke-miterlimit:10;" x1="4.363" y1="388.814" x2="129.092" y2="388.814"/>
			
				<line style="fill:none;stroke:#FFFFFF;stroke-width:2;stroke-linecap:round;stroke-linejoin:round;stroke-miterlimit:10;" x1="326.709" y1="429.672" x2="264.922" y2="429.672"/>
			
				<line style="fill:none;stroke:#FFFFFF;stroke-width:2;stroke-linecap:round;stroke-linejoin:round;stroke-miterlimit:10;" x1="137.262" y1="388.814" x2="144.411" y2="388.814"/>
			
				<line style="fill:none;stroke:#FFFFFF;stroke-width:2;stroke-linecap:round;stroke-linejoin:round;stroke-miterlimit:10;" x1="333.993" y1="429.672" x2="344.071" y2="429.672"/>
			
				<line style="fill:none;stroke:#FFFFFF;stroke-width:2;stroke-linecap:round;stroke-linejoin:round;stroke-miterlimit:10;" x1="361.649" y1="328.603" x2="252.073" y2="328.603"/>
			
				<line style="fill:none;stroke:#FFFFFF;stroke-width:2;stroke-linecap:round;stroke-linejoin:round;stroke-miterlimit:10;" x1="246.117" y1="328.603" x2="230.116" y2="328.603"/>
			<path style="fill:none;stroke:#FFFFFF;stroke-width:2;stroke-linecap:round;stroke-linejoin:round;stroke-miterlimit:10;" d="
				M418.11,364.825c0,0-20.28,0-44.422,0"/>
			<path style="fill:none;stroke:#FFFFFF;stroke-width:2;stroke-linecap:round;stroke-linejoin:round;stroke-miterlimit:10;" d="
				M359.39,364.825c-2.893,0-5.795,0-8.681,0"/>
			
				<line style="fill:none;stroke:#FFFFFF;stroke-width:2;stroke-linecap:round;stroke-linejoin:round;stroke-miterlimit:10;" x1="107.645" y1="441.16" x2="42.907" y2="441.16"/>
			
				<line style="fill:none;stroke:#FFFFFF;stroke-width:2;stroke-linecap:round;stroke-linejoin:round;stroke-miterlimit:10;" x1="25.433" y1="441.16" x2="20.326" y2="441.16"/>
			
				<line style="fill:none;stroke:#FFFFFF;stroke-width:2;stroke-linecap:round;stroke-linejoin:round;stroke-miterlimit:10;" x1="244.533" y1="247.713" x2="211.305" y2="247.713"/>
			
				<line style="fill:none;stroke:#FFFFFF;stroke-width:2;stroke-linecap:round;stroke-linejoin:round;stroke-miterlimit:10;" x1="29.692" y1="259.119" x2="12.156" y2="259.119"/>
			
				<line style="fill:none;stroke:#FFFFFF;stroke-width:2;stroke-linecap:round;stroke-linejoin:round;stroke-miterlimit:10;" x1="66.728" y1="315.849" x2="42.907" y2="315.849"/>
			
				<line style="fill:none;stroke:#FFFFFF;stroke-width:2;stroke-linecap:round;stroke-linejoin:round;stroke-miterlimit:10;" x1="29.692" y1="315.849" x2="22.017" y2="315.849"/>
		</g>
		<g>
			<path style="fill:none;stroke:#FFFFFF;stroke-width:2;stroke-linecap:round;stroke-linejoin:round;stroke-miterlimit:10;" d="
				M471.667,371.746c15.215,15.215,15.215,39.883,0,55.098"/>
			<path style="fill:none;stroke:#FFFFFF;stroke-width:2;stroke-linecap:round;stroke-linejoin:round;stroke-miterlimit:10;" d="
				M465.294,378.118c11.696,11.696,11.696,30.658,0,42.354"/>
			<path style="fill:none;stroke:#FFFFFF;stroke-width:2;stroke-linecap:round;stroke-linejoin:round;stroke-miterlimit:10;" d="
				M458.452,384.961c7.917,7.917,7.917,20.752,0,28.669"/>
		</g>
		<g>
			<path style="fill:none;stroke:#FFFFFF;stroke-width:2;stroke-linecap:round;stroke-linejoin:round;stroke-miterlimit:10;" d="
				M29.692,147.923c15.215-15.215,39.883-15.215,55.098,0"/>
			<path style="fill:none;stroke:#FFFFFF;stroke-width:2;stroke-linecap:round;stroke-linejoin:round;stroke-miterlimit:10;" d="
				M36.065,154.296c11.696-11.696,30.658-11.696,42.353,0"/>
			<path style="fill:none;stroke:#FFFFFF;stroke-width:2;stroke-linecap:round;stroke-linejoin:round;stroke-miterlimit:10;" d="
				M42.907,161.138c7.917-7.917,20.752-7.917,28.669,0"/>
		</g>
	</g>
	<g>
		<circle style="fill:#B8E2FF;" cx="346.086" cy="143.566" r="103.972"/>
		<g>
			
				<circle style="fill:none;stroke:#FFFFFF;stroke-width:2;stroke-linecap:round;stroke-linejoin:round;stroke-miterlimit:10;" cx="346.086" cy="143.566" r="96.086"/>
			
				<ellipse style="fill:none;stroke:#FFFFFF;stroke-width:2;stroke-linecap:round;stroke-linejoin:round;stroke-miterlimit:10;" cx="346.086" cy="143.566" rx="85.399" ry="96.086"/>
			
				<ellipse style="fill:none;stroke:#FFFFFF;stroke-width:2;stroke-linecap:round;stroke-linejoin:round;stroke-miterlimit:10;" cx="346.086" cy="143.566" rx="68.825" ry="96.086"/>
			
				<ellipse style="fill:none;stroke:#FFFFFF;stroke-width:2;stroke-linecap:round;stroke-linejoin:round;stroke-miterlimit:10;" cx="346.086" cy="143.566" rx="51.749" ry="96.086"/>
			
				<ellipse style="fill:none;stroke:#FFFFFF;stroke-width:2;stroke-linecap:round;stroke-linejoin:round;stroke-miterlimit:10;" cx="346.086" cy="143.566" rx="30.906" ry="96.086"/>
			
				<line style="fill:none;stroke:#FFFFFF;stroke-width:2;stroke-linecap:round;stroke-linejoin:round;stroke-miterlimit:10;" x1="346.086" y1="47.479" x2="346.086" y2="239.652"/>
			<g>
				
					<circle style="fill:none;stroke:#FFFFFF;stroke-width:2;stroke-linecap:round;stroke-linejoin:round;stroke-miterlimit:10;" cx="346.086" cy="143.566" r="96.086"/>
				
					<ellipse style="fill:none;stroke:#FFFFFF;stroke-width:2;stroke-linecap:round;stroke-linejoin:round;stroke-miterlimit:10;" cx="346.086" cy="143.566" rx="96.086" ry="85.399"/>
				
					<ellipse style="fill:none;stroke:#FFFFFF;stroke-width:2;stroke-linecap:round;stroke-linejoin:round;stroke-miterlimit:10;" cx="346.086" cy="143.566" rx="96.086" ry="68.825"/>
				
					<ellipse style="fill:none;stroke:#FFFFFF;stroke-width:2;stroke-linecap:round;stroke-linejoin:round;stroke-miterlimit:10;" cx="346.086" cy="143.566" rx="96.086" ry="51.749"/>
				
					<ellipse style="fill:none;stroke:#FFFFFF;stroke-width:2;stroke-linecap:round;stroke-linejoin:round;stroke-miterlimit:10;" cx="346.086" cy="143.566" rx="96.086" ry="30.906"/>
				
					<line style="fill:none;stroke:#FFFFFF;stroke-width:2;stroke-linecap:round;stroke-linejoin:round;stroke-miterlimit:10;" x1="442.172" y1="143.566" x2="250" y2="143.566"/>
			</g>
		</g>
		<path style="fill:none;stroke:#C42626;stroke-width:2;stroke-miterlimit:10;" d="M301.233,190.462l23.264-9.619v-12.596
			l5.106-5.106l2.383-2.383l-4.766-10.553l-0.681-6.638c0,0,7.83-8,9.191-8s27.574,0,27.574,0l10.894-6.128l10.213-1.702
			l5.447-5.106l-7.085-7.635l-1.394-7.684l8.479-5.447l2.25-5.903"/>
		<path style="fill:#E04646;" d="M407.981,48.018c-9.24-9.24-24.22-9.24-33.46,0l0,0c-9.24,9.24-9.24,24.22,0,33.46l16.73,16.73
			l16.73-16.73C417.221,72.238,417.221,57.258,407.981,48.018z M384.271,71.729c-3.855-3.855-3.855-10.106,0-13.962
			c3.855-3.855,10.106-3.855,13.961,0c3.855,3.855,3.855,10.106,0,13.961S388.126,75.584,384.271,71.729z"/>
		<circle style="fill:#E04646;" cx="301.233" cy="190.462" r="4.853"/>
	</g>
</g>
</svg>
