<?xml version="1.0" encoding="utf-8"?>
<!-- Generator: Adobe Illustrator 27.5.0, SVG Export Plug-In . SVG Version: 6.00 Build 0)  -->
<svg version="1.1" xmlns="http://www.w3.org/2000/svg" xmlns:xlink="http://www.w3.org/1999/xlink" x="0px" y="0px"
	 viewBox="0 0 3710 3710" style="enable-background:new 0 0 3710 3710;" xml:space="preserve">
<g id="Background">
	<g>
		<g>
			<rect style="fill:#FFFFFF;" width="3710" height="3710"/>
		</g>
	</g>
</g>
<g id="Illustration">
	<g>
		<path style="fill:#F4F7FA;" d="M1900.441,455.642C1152.824,433.87,505.23,968.841,407.389,1670.789
			c-106.974,767.485,481.798,1458.037,1206.259,1568.639c901.107,137.571,1775.128-658.291,1696.65-1521.683
			C3251.172,1067.254,2660.408,477.772,1900.441,455.642z"/>
		<g>
			<g>
				
					<linearGradient id="SVGID_1_" gradientUnits="userSpaceOnUse" x1="3486.5452" y1="1664.0873" x2="3903.0261" y2="1664.0873" gradientTransform="matrix(0.9514 0.3081 -0.3081 0.9514 -420.1072 -749.3323)">
					<stop  offset="0" style="stop-color:#AA80F9"/>
					<stop  offset="0.9964" style="stop-color:#6165D7"/>
				</linearGradient>
				<path style="fill:url(#SVGID_1_);" d="M2862.252,1735.252c-99.188,143.768-589.296,898.281-578.446,825.515
					c0,0-75.239-17.054-44.676-180.724c3.098-16.541,7.257-34.582,12.701-54.241c59.254-214.29,331.804-1012.079,374.439-868.63
					c42.607,143.44,9.734,217.274,65.382,91.953c55.685-125.341,114.471-245.927,165.977-158.531
					c2.931,4.986,5.862,10.067,8.804,15.215C2914.573,1491.034,2955.754,1599.719,2862.252,1735.252z"/>
				
					<linearGradient id="SVGID_00000170267432809234807250000015867565067678319027_" gradientUnits="userSpaceOnUse" x1="3493.853" y1="1678.9861" x2="3903.0261" y2="1678.9861" gradientTransform="matrix(0.9514 0.3081 -0.3081 0.9514 -420.1072 -749.3323)">
					<stop  offset="0" style="stop-color:#AA80F9"/>
					<stop  offset="0.9964" style="stop-color:#6165D7"/>
				</linearGradient>
				<path style="opacity:0.3;fill:url(#SVGID_00000170267432809234807250000015867565067678319027_);" d="M2862.252,1735.252
					c-99.188,143.768-589.296,898.281-578.446,825.515c0,0-75.239-17.054-44.676-180.724
					c43.167-103.078,160.206-179.184,207.665-214.637c71.26-53.204,97.999-57.258,109.756-201.528
					c11.757-144.27,55.096-199.586,206.685-363.444c68.414-73.958,94.804-142.104,103.198-194.625
					C2914.573,1491.034,2955.754,1599.719,2862.252,1735.252z"/>
			</g>
			<g>
				
					<linearGradient id="SVGID_00000130616071260114838000000005095119571730369431_" gradientUnits="userSpaceOnUse" x1="4111.5352" y1="1197.2095" x2="4808.1025" y2="1197.2095" gradientTransform="matrix(0.9111 0.4123 -0.4123 0.9111 -703.4032 -830.9179)">
					<stop  offset="0" style="stop-color:#AA80F9"/>
					<stop  offset="0.9964" style="stop-color:#6165D7"/>
				</linearGradient>
				<path style="fill:url(#SVGID_00000130616071260114838000000005095119571730369431_);" d="M3089.417,2308.293
					c-183.263,100.538-649.691,259.591-772.469,248.836c-27.552-2.412-37.815-13.395-23.676-35.473
					c0,0,475.647-1091.577,802.934-1021.631c43.816,9.374,102.395,31.302,133.16,65.337c5.302,5.884,9.879,11.905,13.814,18.099
					c62.024,97.997-40.948,234.238-105.024,304.543c-23.832,26.188-54.084,44.194-79.601,68.458
					c-21.68,20.624-37.027,52.41-0.097,61.09c33.908,7.943,67.983-23.865,101.187-25.069c37.665-1.309,58.852,23.745,67.276,72.163
					C3244.699,2166.616,3177.486,2259.996,3089.417,2308.293z"/>
				
					<linearGradient id="SVGID_00000036215595895978699080000012836087646078460081_" gradientUnits="userSpaceOnUse" x1="4148.3413" y1="1206.9473" x2="4808.1025" y2="1206.9473" gradientTransform="matrix(0.9111 0.4123 -0.4123 0.9111 -703.4032 -830.9179)">
					<stop  offset="0" style="stop-color:#AA80F9"/>
					<stop  offset="0.9964" style="stop-color:#6165D7"/>
				</linearGradient>
				<path style="opacity:0.3;fill:url(#SVGID_00000036215595895978699080000012836087646078460081_);" d="M3089.417,2308.293
					c-183.263,100.538-649.691,259.591-772.469,248.836c26.109-30.269,55.996-63.674,90.158-100.221
					c202.71-216.927,414.628-91.158,387.978-307.297c-26.638-216.167,45.504-397.59,243.534-431.673
					c117.168-20.193,176.017-84.965,204.562-134.476c62.024,97.997-40.948,234.238-105.024,304.543
					c-23.832,26.188-54.084,44.194-79.601,68.458c-21.68,20.624-37.027,52.41-0.097,61.09
					c33.908,7.943,67.983-23.865,101.187-25.069c37.665-1.309,58.852,23.745,67.276,72.163
					C3244.699,2166.616,3177.486,2259.996,3089.417,2308.293z"/>
			</g>
		</g>
		<g>
			<g>
				
					<linearGradient id="SVGID_00000172423456115618371010000013688582013712310463_" gradientUnits="userSpaceOnUse" x1="720.7093" y1="1573.0309" x2="2979.6331" y2="1573.0309">
					<stop  offset="0" style="stop-color:#444B8C"/>
					<stop  offset="0.9964" style="stop-color:#26264F"/>
				</linearGradient>
				<path style="fill:url(#SVGID_00000172423456115618371010000013688582013712310463_);" d="M2915.555,868.641L799.026,825.849
					c-43.875-0.767-78.317,32.596-78.317,74.522v84.399v45v1217.827c0,41.927,34.582,74.405,78.457,72.552l2116.938-103.44
					c35.59-1.503,63.529-33.194,63.529-70.79V1053.872v-40.353v-75.681C2979.633,900.242,2951.145,869.263,2915.555,868.641z"/>
				<g>
					<path style="fill:#EAEDF3;" d="M3021.463,1013.52v1132.4c0,37.596-28.769,69.287-64.359,70.79L839.338,2320.15
						c-43.875,1.853-79.557-30.625-79.557-72.552V984.77L3021.463,1013.52z"/>
					
						<linearGradient id="SVGID_00000080897059541084638920000001811057335609875593_" gradientUnits="userSpaceOnUse" x1="1098.9606" y1="658.1307" x2="82.2162" y2="2320.2876" gradientTransform="matrix(-1 0 0 1 2796.5811 0)">
						<stop  offset="0" style="stop-color:#444B8C"/>
						<stop  offset="0.9964" style="stop-color:#26264F"/>
					</linearGradient>
					<path style="fill:url(#SVGID_00000080897059541084638920000001811057335609875593_);" d="M839.338,825.849l2117.766,42.792
						c35.591,0.622,64.359,31.601,64.359,69.196v116.035l-2261.682-24.102V900.371C759.781,858.446,795.463,825.083,839.338,825.849
						z"/>
					<g>
						<g>
							<g>
								
									<linearGradient id="SVGID_00000102541912227639936640000003753124198569963425_" gradientUnits="userSpaceOnUse" x1="2015.3538" y1="1407.4257" x2="2480.3726" y2="1407.4257">
									<stop  offset="0" style="stop-color:#FF9085"/>
									<stop  offset="1" style="stop-color:#FB6FBB"/>
								</linearGradient>
								<path style="fill:url(#SVGID_00000102541912227639936640000003753124198569963425_);" d="M2480.373,1624.519
									l-126.437-454.666c-194.481,63.707-337.508,252.138-338.582,475.145L2480.373,1624.519z"/>
							</g>
							<g>
								
									<linearGradient id="SVGID_00000065786121107273915050000006163579355838442925_" gradientUnits="userSpaceOnUse" x1="1969.5768" y1="1192.4058" x2="3059.8757" y2="2877.7773">
									<stop  offset="0" style="stop-color:#FCB148"/>
									<stop  offset="0.0521" style="stop-color:#FDBA46"/>
									<stop  offset="0.1424" style="stop-color:#FFC244"/>
									<stop  offset="0.3183" style="stop-color:#FFC444"/>
									<stop  offset="0.4849" style="stop-color:#FDB946"/>
									<stop  offset="0.7754" style="stop-color:#F99C4D"/>
									<stop  offset="0.8658" style="stop-color:#F8924F"/>
									<stop  offset="1" style="stop-color:#F8924F"/>
								</linearGradient>
								<path style="fill:url(#SVGID_00000065786121107273915050000006163579355838442925_);" d="M2137.694,1672.141
									c7.295,105.292,56.887,197.465,131.128,259.034l199.416-274.485L2137.694,1672.141z"/>
								
									<linearGradient id="SVGID_00000005981210645471283820000013523868467281132695_" gradientUnits="userSpaceOnUse" x1="2297.8572" y1="980.0349" x2="3388.1563" y2="2665.4067">
									<stop  offset="0" style="stop-color:#FCB148"/>
									<stop  offset="0.0521" style="stop-color:#FDBA46"/>
									<stop  offset="0.1424" style="stop-color:#FFC244"/>
									<stop  offset="0.3183" style="stop-color:#FFC444"/>
									<stop  offset="0.4849" style="stop-color:#FDB946"/>
									<stop  offset="0.7754" style="stop-color:#F99C4D"/>
									<stop  offset="0.8658" style="stop-color:#F8924F"/>
									<stop  offset="1" style="stop-color:#F8924F"/>
								</linearGradient>
								<path style="fill:url(#SVGID_00000005981210645471283820000013523868467281132695_);" d="M2508.416,1608.579
									c75.535-76.143,165.867-167.398,237.076-239.661c-63.134-62.714-149.139-101.375-244.575-101.357
									c-29.124,0.006-57.507,3.616-84.753,10.428L2508.416,1608.579z"/>
								
									<linearGradient id="SVGID_00000081624392211988312570000004536677813072291494_" gradientUnits="userSpaceOnUse" x1="2300.4868" y1="978.3355" x2="3390.7854" y2="2663.7063">
									<stop  offset="0" style="stop-color:#FCB148"/>
									<stop  offset="0.0521" style="stop-color:#FDBA46"/>
									<stop  offset="0.1424" style="stop-color:#FFC244"/>
									<stop  offset="0.3183" style="stop-color:#FFC444"/>
									<stop  offset="0.4849" style="stop-color:#FDB946"/>
									<stop  offset="0.7754" style="stop-color:#F99C4D"/>
									<stop  offset="0.8658" style="stop-color:#F8924F"/>
									<stop  offset="1" style="stop-color:#F8924F"/>
								</linearGradient>
								<path style="fill:url(#SVGID_00000081624392211988312570000004536677813072291494_);" d="M2524.219,1636.707l270.74,201.983
									c37.267-59.235,58.957-129.812,58.957-205.227c0-93.002-32.999-177.622-87.566-241.971
									c-19.625,19.951-41.49,42.148-65.51,66.502C2627.712,1532.14,2553.668,1606.961,2524.219,1636.707z"/>
								
									<linearGradient id="SVGID_00000012466353403881387300000005850146781799391400_" gradientUnits="userSpaceOnUse" x1="2109.2212" y1="1102.0668" x2="3199.5203" y2="2787.4385">
									<stop  offset="0" style="stop-color:#FCB148"/>
									<stop  offset="0.0521" style="stop-color:#FDBA46"/>
									<stop  offset="0.1424" style="stop-color:#FFC244"/>
									<stop  offset="0.3183" style="stop-color:#FFC444"/>
									<stop  offset="0.4849" style="stop-color:#FDB946"/>
									<stop  offset="0.7754" style="stop-color:#F99C4D"/>
									<stop  offset="0.8658" style="stop-color:#F8924F"/>
									<stop  offset="1" style="stop-color:#F8924F"/>
								</linearGradient>
								<path style="fill:url(#SVGID_00000012466353403881387300000005850146781799391400_);" d="M2516.259,1670.27l5.313,339.338
									c103.996-9.51,195.274-64.658,255.635-145.109L2516.259,1670.27z"/>
								
									<linearGradient id="SVGID_00000093157813565260601220000014659365161169517238_" gradientUnits="userSpaceOnUse" x1="1980.6379" y1="1185.2499" x2="3070.9365" y2="2870.6206">
									<stop  offset="0" style="stop-color:#FCB148"/>
									<stop  offset="0.0521" style="stop-color:#FDBA46"/>
									<stop  offset="0.1424" style="stop-color:#FFC244"/>
									<stop  offset="0.3183" style="stop-color:#FFC444"/>
									<stop  offset="0.4849" style="stop-color:#FDB946"/>
									<stop  offset="0.7754" style="stop-color:#F99C4D"/>
									<stop  offset="0.8658" style="stop-color:#F8924F"/>
									<stop  offset="1" style="stop-color:#F8924F"/>
								</linearGradient>
								<path style="fill:url(#SVGID_00000093157813565260601220000014659365161169517238_);" d="M2485.752,1685.197
									l-192.068,264.81c56.477,38.964,124.327,61.351,197.177,61.065L2485.752,1685.197z"/>
							</g>
						</g>
						<polygon style="fill:#D8DEE8;" points="964.916,1393.754 1947.692,1386.86 1947.692,1268.485 964.916,1268.784 						"/>
						<polygon style="fill:#D8DEE8;" points="964.916,1619.889 1947.692,1601.061 1947.692,1482.687 964.916,1494.92 						"/>
						<polygon style="fill:#D8DEE8;" points="964.916,1846.025 1947.692,1815.261 1947.692,1696.888 964.916,1721.055 						"/>
						<polygon style="fill:#D8DEE8;" points="964.916,2072.16 1947.692,2029.462 1947.692,1911.088 964.916,1947.191 						"/>
					</g>
					<path style="fill:#FFFFFF;" d="M2873.035,958.563c0,16.824,12.936,30.62,28.873,30.813
						c15.914,0.193,28.799-13.256,28.799-30.037c0-16.782-12.885-30.576-28.799-30.812
						C2885.97,928.291,2873.035,941.738,2873.035,958.563z"/>
				</g>
			</g>
		</g>
		<g>
			
				<linearGradient id="SVGID_00000134961151403880552550000002728822665913579966_" gradientUnits="userSpaceOnUse" x1="650.4139" y1="1087.9896" x2="347.7826" y2="1185.1132">
				<stop  offset="0" style="stop-color:#FCB148"/>
				<stop  offset="0.0521" style="stop-color:#FDBA46"/>
				<stop  offset="0.1424" style="stop-color:#FFC244"/>
				<stop  offset="0.3183" style="stop-color:#FFC444"/>
				<stop  offset="0.4849" style="stop-color:#FDB946"/>
				<stop  offset="0.7754" style="stop-color:#F99C4D"/>
				<stop  offset="0.8658" style="stop-color:#F8924F"/>
				<stop  offset="1" style="stop-color:#F8924F"/>
			</linearGradient>
			<path style="fill:url(#SVGID_00000134961151403880552550000002728822665913579966_);" d="M998.807,1077.009
				c0,140.394-109.78,250.835-250.091,246.526c-146.022-4.484-268.832-130.596-268.832-281.511
				c0-150.915,122.81-260.468,268.832-245.263C889.027,811.371,998.807,936.614,998.807,1077.009z"/>
			
				<linearGradient id="SVGID_00000031189418240252218460000004130715013082601377_" gradientUnits="userSpaceOnUse" x1="895.225" y1="786.7507" x2="625.0545" y2="1382.7972">
				<stop  offset="0" style="stop-color:#FFDB44"/>
				<stop  offset="1" style="stop-color:#FEEF06"/>
			</linearGradient>
			<path style="fill:url(#SVGID_00000031189418240252218460000004130715013082601377_);" d="M1036.722,1064.903
				c0,140.394-109.78,250.835-250.091,246.527c-146.022-4.484-268.832-130.596-268.832-281.511
				c0-150.915,122.81-260.468,268.832-245.263C926.942,799.266,1036.722,924.509,1036.722,1064.903z"/>
			
				<linearGradient id="SVGID_00000132770014082218566220000018044271211920063389_" gradientUnits="userSpaceOnUse" x1="845.527" y1="1416.1102" x2="793.3971" y2="1131.3262">
				<stop  offset="0" style="stop-color:#FCB148"/>
				<stop  offset="0.0521" style="stop-color:#FDBA46"/>
				<stop  offset="0.1424" style="stop-color:#FFC244"/>
				<stop  offset="0.3183" style="stop-color:#FFC444"/>
				<stop  offset="0.4849" style="stop-color:#FDB946"/>
				<stop  offset="0.7754" style="stop-color:#F99C4D"/>
				<stop  offset="0.8658" style="stop-color:#F8924F"/>
				<stop  offset="1" style="stop-color:#F8924F"/>
			</linearGradient>
			<path style="fill:url(#SVGID_00000132770014082218566220000018044271211920063389_);" d="M1025.709,1064.161
				c0,134.212-105.039,239.611-239.078,235.271c-139.241-4.508-256.148-124.863-256.148-268.657
				c0-143.795,116.907-248.386,256.148-234.12C920.669,810.387,1025.709,929.949,1025.709,1064.161z"/>
			
				<linearGradient id="SVGID_00000118365858030151339920000007085978077787093389_" gradientUnits="userSpaceOnUse" x1="735.0014" y1="955.1559" x2="949.8359" y2="1411.2084">
				<stop  offset="0" style="stop-color:#FCB148"/>
				<stop  offset="0.0521" style="stop-color:#FDBA46"/>
				<stop  offset="0.1424" style="stop-color:#FFC244"/>
				<stop  offset="0.3183" style="stop-color:#FFC444"/>
				<stop  offset="0.4849" style="stop-color:#FDB946"/>
				<stop  offset="0.7754" style="stop-color:#F99C4D"/>
				<stop  offset="0.8658" style="stop-color:#F8924F"/>
				<stop  offset="1" style="stop-color:#F8924F"/>
			</linearGradient>
			<path style="fill:url(#SVGID_00000118365858030151339920000007085978077787093389_);" d="M1017.821,1063.629
				c0,129.784-101.638,231.582-231.19,227.232c-134.405-4.512-247.115-120.755-247.115-259.478s112.71-239.769,247.115-226.159
				C916.182,818.342,1017.821,933.845,1017.821,1063.629z"/>
			<g>
				
					<linearGradient id="SVGID_00000083075970616688031270000014572997154776110246_" gradientUnits="userSpaceOnUse" x1="726.4424" y1="857.0192" x2="834.4686" y2="1261.8824">
					<stop  offset="0" style="stop-color:#FFDB44"/>
					<stop  offset="1" style="stop-color:#FEEF06"/>
				</linearGradient>
				<path style="fill:url(#SVGID_00000083075970616688031270000014572997154776110246_);" d="M785.304,849.376L785.304,849.376
					c6.895,0.656,12.474,6.862,12.474,13.863v23.895c13.785,1.539,27.589,3.935,41.414,7.184
					c10.193,2.395,20.318,5.247,30.374,8.554c6.026,1.981,10.132,8.065,9.517,14.339l-2.935,29.964
					c-0.779,7.95-8.637,12.618-16.035,9.319c-6.624-2.953-13.416-5.484-20.376-7.59c-12.146-3.675-24.955-6.072-38.434-7.182
					l-3.525-0.29v68.433c35.964,10.062,62.375,23.598,79.443,40.623c16.986,16.943,25.449,38.06,25.449,63.412
					c0,27.415-9.357,49.367-28.144,65.923c-18.888,16.644-45.369,26.006-79.614,28.032v26.374c0,7.004-5.584,12.46-12.484,12.186
					l-0.221-0.008c-6.914-0.275-12.528-6.196-12.528-13.225v-26.017l-5.557-0.251c-16.054-0.725-31.431-2.362-46.123-4.918
					c-10.881-1.892-21.506-4.335-31.873-7.33c-6.27-1.811-10.574-7.784-9.999-14.201l3.453-38.518
					c0.746-8.327,9.111-13.172,17.028-10.049c9.229,3.641,18.574,6.707,28.032,9.201c14.74,3.887,29.68,6.38,44.817,7.488
					l0.222-76.123c-34.521-8.542-60.366-21.194-77.346-37.952c-17.06-16.837-25.62-38.385-25.62-64.583
					c0-27.113,9.282-48.041,27.775-62.729c18.4-14.613,44.555-21.883,78.299-21.865v-24.429
					C772.786,853.882,778.396,848.72,785.304,849.376z M772.786,940.724c-10.669,0.776-18.988,3.706-24.943,8.794
					c-5.964,5.096-8.95,11.945-8.95,20.542c0,8.144,2.762,14.951,8.28,20.415c5.509,5.456,14.054,9.812,25.614,13.067V940.724z
					 M794.912,1078.567v69.807c11.598,0.023,20.491-2.746,26.699-8.299c6.198-5.544,9.293-13.374,9.293-23.499
					c0-9.231-2.876-16.887-8.635-22.975C816.499,1087.503,807.389,1082.492,794.912,1078.567z"/>
			</g>
			
				<linearGradient id="SVGID_00000116198611211417660260000006217080382325878198_" gradientUnits="userSpaceOnUse" x1="671.7979" y1="984.6694" x2="886.199" y2="1439.8021">
				<stop  offset="0" style="stop-color:#FCB148"/>
				<stop  offset="0.0521" style="stop-color:#FDBA46"/>
				<stop  offset="0.1424" style="stop-color:#FFC244"/>
				<stop  offset="0.3183" style="stop-color:#FFC444"/>
				<stop  offset="0.4849" style="stop-color:#FDB946"/>
				<stop  offset="0.7754" style="stop-color:#F99C4D"/>
				<stop  offset="0.8658" style="stop-color:#F8924F"/>
				<stop  offset="1" style="stop-color:#F8924F"/>
			</linearGradient>
			<path style="opacity:0.3;fill:url(#SVGID_00000116198611211417660260000006217080382325878198_);" d="M744.794,1095.411
				c7.811-77.147,78.713-109.806,69.46-180.77c-5.703-43.738-38.854-80.598-75.834-109.378
				c-112.168,11.763-198.905,104.642-198.905,226.12c0,138.724,112.71,254.966,247.115,259.479
				c13.05,0.438,25.795-0.24,38.188-1.865C771.441,1235.882,738.083,1161.69,744.794,1095.411z"/>
		</g>
		<g>
			
				<linearGradient id="SVGID_00000070810202721633525370000012428797034671378059_" gradientUnits="userSpaceOnUse" x1="1149.6913" y1="735.7454" x2="892.7546" y2="818.2041">
				<stop  offset="0" style="stop-color:#FCB148"/>
				<stop  offset="0.0521" style="stop-color:#FDBA46"/>
				<stop  offset="0.1424" style="stop-color:#FFC244"/>
				<stop  offset="0.3183" style="stop-color:#FFC444"/>
				<stop  offset="0.4849" style="stop-color:#FDB946"/>
				<stop  offset="0.7754" style="stop-color:#F99C4D"/>
				<stop  offset="0.8658" style="stop-color:#F8924F"/>
				<stop  offset="1" style="stop-color:#F8924F"/>
			</linearGradient>
			<path style="fill:url(#SVGID_00000070810202721633525370000012428797034671378059_);" d="M1445.48,726.422
				c0,119.196-93.204,212.961-212.329,209.303c-123.974-3.807-228.241-110.877-228.241-239.005
				c0-128.128,104.267-221.14,228.241-208.231C1352.276,500.894,1445.48,607.226,1445.48,726.422z"/>
			
				<linearGradient id="SVGID_00000155849960284960579710000007002876701832753813_" gradientUnits="userSpaceOnUse" x1="1357.5381" y1="479.9908" x2="1128.1609" y2="986.0397">
				<stop  offset="0" style="stop-color:#FFDB44"/>
				<stop  offset="1" style="stop-color:#FEEF06"/>
			</linearGradient>
			<path style="fill:url(#SVGID_00000155849960284960579710000007002876701832753813_);" d="M1477.67,716.145
				c0,119.196-93.204,212.961-212.329,209.303c-123.974-3.807-228.241-110.877-228.241-239.005
				c0-128.128,104.266-221.14,228.241-208.231C1384.466,490.616,1477.67,596.949,1477.67,716.145z"/>
			
				<linearGradient id="SVGID_00000102539580324919755800000016152980313255895464_" gradientUnits="userSpaceOnUse" x1="1315.344" y1="1014.3228" x2="1271.0852" y2="772.5385">
				<stop  offset="0" style="stop-color:#FCB148"/>
				<stop  offset="0.0521" style="stop-color:#FDBA46"/>
				<stop  offset="0.1424" style="stop-color:#FFC244"/>
				<stop  offset="0.3183" style="stop-color:#FFC444"/>
				<stop  offset="0.4849" style="stop-color:#FDB946"/>
				<stop  offset="0.7754" style="stop-color:#F99C4D"/>
				<stop  offset="0.8658" style="stop-color:#F8924F"/>
				<stop  offset="1" style="stop-color:#F8924F"/>
			</linearGradient>
			<path style="fill:url(#SVGID_00000102539580324919755800000016152980313255895464_);" d="M1468.32,715.514
				c0,113.947-89.179,203.432-202.979,199.747c-118.217-3.828-217.472-106.01-217.472-228.092
				c0-122.083,99.255-210.882,217.472-198.77C1379.141,500.058,1468.32,601.567,1468.32,715.514z"/>
			
				<linearGradient id="SVGID_00000170268977646935799790000000556126755186331318_" gradientUnits="userSpaceOnUse" x1="1221.5068" y1="622.9684" x2="1403.9032" y2="1010.1611">
				<stop  offset="0" style="stop-color:#FCB148"/>
				<stop  offset="0.0521" style="stop-color:#FDBA46"/>
				<stop  offset="0.1424" style="stop-color:#FFC244"/>
				<stop  offset="0.3183" style="stop-color:#FFC444"/>
				<stop  offset="0.4849" style="stop-color:#FDB946"/>
				<stop  offset="0.7754" style="stop-color:#F99C4D"/>
				<stop  offset="0.8658" style="stop-color:#F8924F"/>
				<stop  offset="1" style="stop-color:#F8924F"/>
			</linearGradient>
			<path style="fill:url(#SVGID_00000170268977646935799790000000556126755186331318_);" d="M1461.623,715.063
				c0,110.188-86.292,196.615-196.282,192.922c-114.111-3.831-209.803-102.522-209.803-220.299s95.692-203.566,209.803-192.011
				C1375.331,506.812,1461.623,604.875,1461.623,715.063z"/>
			<g>
				
					<linearGradient id="SVGID_00000005976877822380577700000017186657666657124529_" gradientUnits="userSpaceOnUse" x1="1214.2401" y1="539.6495" x2="1305.9553" y2="883.3819">
					<stop  offset="0" style="stop-color:#FFDB44"/>
					<stop  offset="1" style="stop-color:#FEEF06"/>
				</linearGradient>
				<path style="fill:url(#SVGID_00000005976877822380577700000017186657666657124529_);" d="M1264.214,533.161L1264.214,533.161
					c5.854,0.557,10.59,5.826,10.59,11.77v20.287c11.703,1.307,23.424,3.341,35.161,6.1c8.654,2.034,17.25,4.455,25.788,7.262
					c5.116,1.682,8.602,6.847,8.08,12.174l-2.492,25.44c-0.661,6.75-7.333,10.713-13.614,7.912c-5.624-2.507-11.39-4.656-17.3-6.444
					c-10.312-3.12-21.187-5.155-32.631-6.098l-2.992-0.247v58.1c30.533,8.542,52.957,20.035,67.448,34.49
					c14.422,14.385,21.607,32.313,21.607,53.837c0,23.275-7.944,41.913-23.895,55.969c-16.036,14.131-38.519,22.079-67.593,23.8
					v22.392c0,5.947-4.741,10.579-10.599,10.346l-0.188-0.007c-5.87-0.233-10.637-5.26-10.637-11.228v-22.088l-4.718-0.213
					c-13.63-0.615-26.685-2.005-39.159-4.175c-9.238-1.607-18.259-3.681-27.061-6.223c-5.323-1.538-8.977-6.609-8.489-12.057
					l2.931-32.702c0.634-7.069,7.735-11.183,14.457-8.531c7.836,3.091,15.769,5.695,23.799,7.812
					c12.514,3.3,25.198,5.417,38.05,6.357l0.189-64.629c-29.308-7.252-51.251-17.994-65.668-32.222
					c-14.484-14.295-21.751-32.589-21.751-54.832c0-23.019,7.88-40.787,23.581-53.257c15.621-12.407,37.828-18.579,66.477-18.564
					v-20.74C1253.587,536.986,1258.349,532.603,1264.214,533.161z M1253.587,610.716c-9.058,0.659-16.121,3.147-21.177,7.466
					c-5.064,4.327-7.599,10.142-7.599,17.44c0,6.914,2.345,12.693,7.03,17.333c4.677,4.632,11.932,8.331,21.746,11.094V610.716z
					 M1272.371,727.745v59.267c9.847,0.019,17.397-2.332,22.668-7.046c5.262-4.707,7.889-11.355,7.889-19.951
					c0-7.837-2.442-14.337-7.332-19.506C1290.699,735.332,1282.964,731.078,1272.371,727.745z"/>
			</g>
			
				<linearGradient id="SVGID_00000147914077091140997330000009873603385607632791_" gradientUnits="userSpaceOnUse" x1="1167.8464" y1="648.0256" x2="1349.8749" y2="1034.4374">
				<stop  offset="0" style="stop-color:#FCB148"/>
				<stop  offset="0.0521" style="stop-color:#FDBA46"/>
				<stop  offset="0.1424" style="stop-color:#FFC244"/>
				<stop  offset="0.3183" style="stop-color:#FFC444"/>
				<stop  offset="0.4849" style="stop-color:#FDB946"/>
				<stop  offset="0.7754" style="stop-color:#F99C4D"/>
				<stop  offset="0.8658" style="stop-color:#F8924F"/>
				<stop  offset="1" style="stop-color:#F8924F"/>
			</linearGradient>
			<path style="opacity:0.3;fill:url(#SVGID_00000147914077091140997330000009873603385607632791_);" d="M1229.821,742.046
				c6.632-65.499,66.828-93.227,58.972-153.475c-4.842-37.134-32.987-68.428-64.384-92.863
				c-95.232,9.987-168.872,88.842-168.872,191.978c0,117.778,95.692,216.468,209.803,220.3c11.08,0.372,21.9-0.204,32.422-1.583
				C1252.444,861.307,1224.123,798.318,1229.821,742.046z"/>
		</g>
		<g>
			<g>
				<g>
					
						<linearGradient id="SVGID_00000066494989444111692690000004423203924811686075_" gradientUnits="userSpaceOnUse" x1="2959.7168" y1="2432.8787" x2="3219.4587" y2="2432.8787" gradientTransform="matrix(0.956 0.2933 -0.2933 0.956 -1065.7607 -1401.252)">
						<stop  offset="0" style="stop-color:#FFC444"/>
						<stop  offset="0.3138" style="stop-color:#FBA94A"/>
						<stop  offset="0.9964" style="stop-color:#F36F56"/>
					</linearGradient>
					<path style="fill:url(#SVGID_00000066494989444111692690000004423203924811686075_);" d="M1282.626,1911.667
						c-107.893,351.718-158.906,600.415-253.99,571.247c-7.646-2.345-14.612-6.53-20.893-12.377
						c-24.142-22.384-38.271-69.606-42.649-134.666c-1.789-26.41-1.968-55.778-0.558-87.643c1.67-37.109,5.474-77.542,11.372-120.61
						c3.93-28.458,7.617-58.396,13.425-88.97c9.583-50.889,23.147-104.067,34.532-160.254l0.082-0.267
						c0.016-0.054,0.016-0.054,0.033-0.107l26.182-85.349c13.829-45.081,27.33-89.093,45.599-129.945
						c0.115-0.374,0.266-0.679,0.433-1.037l0.016-0.054c1.936-6.31,4.017-12.517,6.291-18.607c0.197-0.642,0.468-1.319,0.717-1.945
						c3.846-10.639,8.077-20.984,12.432-31.175c0.515-1.305,1.07-2.539,1.568-3.79c3.739-8.741,7.472-17.484,11.156-26.066
						c0.238-0.571,0.471-1.143,0.703-1.715c21.145-50.619,43.122-97.471,65.319-139.693c14.801-28.225,29.779-54.348,44.618-78.114
						c67.025-107.107,132.518-166.12,180.381-151.438c1.389,0.426,2.71,0.889,3.997,1.46
						C1510.917,1247.58,1388.978,1564.975,1282.626,1911.667z"/>
					
						<linearGradient id="SVGID_00000049197176574805723630000007822405429661971360_" gradientUnits="userSpaceOnUse" x1="2993.7688" y1="2009.0424" x2="3108.2158" y2="2009.0424" gradientTransform="matrix(0.956 0.2933 -0.2933 0.956 -1065.7607 -1401.252)">
						<stop  offset="0" style="stop-color:#FFC444"/>
						<stop  offset="0.3138" style="stop-color:#FBA94A"/>
						<stop  offset="0.9964" style="stop-color:#F36F56"/>
					</linearGradient>
					<path style="opacity:0.4;fill:url(#SVGID_00000049197176574805723630000007822405429661971360_);" d="M1316.442,1431.029
						c-7.235,23.583-51.733,30.938-99.329,16.337c-8.022-2.461-15.665-5.39-22.716-8.724c14.801-28.225,29.779-54.348,44.618-78.114
						c1.458,0.389,2.904,0.832,4.346,1.275C1290.957,1376.404,1323.693,1407.392,1316.442,1431.029z"/>
					
						<linearGradient id="SVGID_00000001630819821896228530000002608902551049822642_" gradientUnits="userSpaceOnUse" x1="2964.4646" y1="2250.9785" x2="3063.4739" y2="2250.9785" gradientTransform="matrix(0.956 0.2933 -0.2933 0.956 -1065.7607 -1401.252)">
						<stop  offset="0" style="stop-color:#FFC444"/>
						<stop  offset="0.3138" style="stop-color:#FBA94A"/>
						<stop  offset="0.9964" style="stop-color:#F36F56"/>
					</linearGradient>
					<path style="opacity:0.4;fill:url(#SVGID_00000001630819821896228530000002608902551049822642_);" d="M1202.85,1648.739
						c-7.234,23.583-51.597,30.497-99.194,15.896c-2.83-0.868-5.853-1.13-8.587-2.144c10.686-28.727,22.111-56.619,33.04-82.522
						l1.389,0.426C1177.094,1594.996,1210.101,1625.102,1202.85,1648.739z"/>
					
						<linearGradient id="SVGID_00000011730082982078454800000000321950906043259569_" gradientUnits="userSpaceOnUse" x1="2959.717" y1="2478.9214" x2="3029.9192" y2="2478.9214" gradientTransform="matrix(0.956 0.2933 -0.2933 0.956 -1065.7607 -1401.252)">
						<stop  offset="0" style="stop-color:#FFC444"/>
						<stop  offset="0.3138" style="stop-color:#FBA94A"/>
						<stop  offset="0.9964" style="stop-color:#F36F56"/>
					</linearGradient>
					<path style="opacity:0.4;fill:url(#SVGID_00000011730082982078454800000000321950906043259569_);" d="M1103.775,1857.27
						c-6.234,20.321-40.185,28.571-79.908,21.125l0.082-0.267c0.016-0.054,0.016-0.054,0.033-0.107l25.477-83.05
						C1086.541,1811.026,1110.025,1836.895,1103.775,1857.27z"/>
					
						<linearGradient id="SVGID_00000062894874464099282770000015103004560696452270_" gradientUnits="userSpaceOnUse" x1="2973.7102" y1="2730.3889" x2="3063.4907" y2="2730.3889" gradientTransform="matrix(0.956 0.2933 -0.2933 0.956 -1065.7607 -1401.252)">
						<stop  offset="0" style="stop-color:#FFC444"/>
						<stop  offset="0.3138" style="stop-color:#FBA94A"/>
						<stop  offset="0.9964" style="stop-color:#F36F56"/>
					</linearGradient>
					<path style="opacity:0.4;fill:url(#SVGID_00000062894874464099282770000015103004560696452270_);" d="M1062.04,2107.76
						c-6.562,21.391-43.719,29.418-86.131,19.859c3.93-28.458,7.617-58.396,13.425-88.97
						C1036.736,2053.307,1069.275,2084.176,1062.04,2107.76z"/>
					
						<linearGradient id="SVGID_00000074406025407078671840000015965116800016016012_" gradientUnits="userSpaceOnUse" x1="3011.4753" y1="2935.3433" x2="3085.873" y2="2935.3433" gradientTransform="matrix(0.956 0.2933 -0.2933 0.956 -1065.7607 -1401.252)">
						<stop  offset="0" style="stop-color:#FFC444"/>
						<stop  offset="0.3138" style="stop-color:#FBA94A"/>
						<stop  offset="0.9964" style="stop-color:#F36F56"/>
					</linearGradient>
					<path style="opacity:0.4;fill:url(#SVGID_00000074406025407078671840000015965116800016016012_);" d="M1022.734,2312.186
						c-5.036,16.418-28.081,24.97-57.638,23.685c-1.789-26.41-1.968-55.778-0.558-87.643
						C1003.881,2264.159,1029.197,2291.116,1022.734,2312.186z"/>
				</g>
				
					<linearGradient id="SVGID_00000124131201325036626410000016168387648387230097_" gradientUnits="userSpaceOnUse" x1="3117.988" y1="2432.9902" x2="3219.4587" y2="2432.9902" gradientTransform="matrix(0.956 0.2933 -0.2933 0.956 -1065.7607 -1401.252)">
					<stop  offset="0" style="stop-color:#FFC444"/>
					<stop  offset="0.3138" style="stop-color:#FBA94A"/>
					<stop  offset="0.9964" style="stop-color:#F36F56"/>
				</linearGradient>
				<path style="opacity:0.4;fill:url(#SVGID_00000124131201325036626410000016168387648387230097_);" d="M1282.626,1911.667
					c-107.893,351.718-158.906,600.415-253.99,571.247c-7.646-2.345-14.612-6.53-20.893-12.377
					c16.454-27.133,41.735-60.334,69.758-100.184c56.64-80.687,134.868-302.897,160.575-484.172
					c25.644-181.236,119.306-446.514,166.271-581.305c15.353-44.145,19.91-74.05,19.045-94.326
					C1510.917,1247.58,1388.978,1564.975,1282.626,1911.667z"/>
			</g>
			<g>
				
					<linearGradient id="SVGID_00000003072345193956161280000017907809105874969014_" gradientUnits="userSpaceOnUse" x1="1128.4741" y1="2036.7742" x2="1375.7954" y2="2036.7742">
					<stop  offset="0.0036" style="stop-color:#E38DDD"/>
					<stop  offset="1" style="stop-color:#9571F6"/>
				</linearGradient>
				<path style="fill:url(#SVGID_00000003072345193956161280000017907809105874969014_);" d="M1129.744,2013.509
					c-2.358,12.629-1.038,25.77,0.763,38.378c1.772,12.406,4.979,24.393,15.681,32.123c2.308,1.667,4.783,3.169,7.422,4.25
					c2.892,1.184,6.466,1.594,9.02,3.454c4.21,3.067,6.004,9.632,9.328,13.627c8.039,9.661,19.145,15.251,31.586,16.501
					c2.97,0.298,6.145,0.404,8.885,1.699c3.097,1.464,5.468,4.305,8.135,6.394c5.046,3.952,10.747,5.8,17.127,5.853
					c5.969,0.05,11.893-1.487,17.582-3.164c6.713-1.979,13.409-4.017,20.113-6.027c6.677-2.001,13.406-3.877,20.034-6.039
					c5.482-1.788,10.88-4.162,15.125-8.154c4.59-4.317,6.48-10.058,8.7-15.774c1.053-2.711,2.204-5.754,4.478-7.699
					c2.246-1.921,5.304-2.642,8.103-3.344c11.447-2.869,22.244-7.215,30.409-16.102c7.063-7.688,10.782-18.531,9.172-28.942
					c-0.143-0.923-0.342-1.832-0.568-2.732c1.135-0.635,2.049-1.594,2.464-2.865c6.836-20.948-0.66-45.531-19.026-58.288
					c-5.125-3.56-10.535-5.264-16.172-7.749c-5.393-2.378-8-7.744-11.854-11.913c-8.341-9.021-19.109-8.123-30.237-6.485
					c-5.062,0.745-9.918,1.268-14.751-0.792c-5.562-2.37-10.431-6.074-15.964-8.498c-5.633-2.468-11.629-3.444-17.701-2.279
					c-5.4,1.036-10.622,3.529-16.14,3.842c-6.146,0.349-12.163-2.691-18.096-3.888c-5.436-1.097-11.131-1.376-16.656-0.943
					c-11.49,0.901-23.47,5.076-32.374,12.526c-4.827,4.039-9.089,8.979-11.278,14.963c-1.104,3.015-1.63,5.995-1.967,9.172
					c-0.296,2.795-0.452,5.516-2.279,7.776c-1.969,2.437-4.664,4.278-6.886,6.472c-2.217,2.189-4.048,4.663-5.694,7.303
					C1132.933,2001.445,1130.884,2007.406,1129.744,2013.509z"/>
				
					<linearGradient id="SVGID_00000034801537016564462780000005297278221635729287_" gradientUnits="userSpaceOnUse" x1="1063.5907" y1="2551.1179" x2="1087.9963" y2="2792.7329" gradientTransform="matrix(-0.7683 -0.6401 -0.6401 0.7683 3809.1167 645.1779)">
					<stop  offset="0.0036" style="stop-color:#E38DDD"/>
					<stop  offset="1" style="stop-color:#9571F6"/>
				</linearGradient>
				<path style="opacity:0.3;fill:url(#SVGID_00000034801537016564462780000005297278221635729287_);" d="M1143.021,1987.834
					c10.572,19.858,23.31,38.825,33.648,58.844c6.846,11.599,18.447,18.905,29.352,25.631c12.181,6.61,27.029,7.188,40.02,1.501
					c25.518-9.4,41.406-32.718,70.057-35.971c19.058-1.736,37.656-1.512,55.452,3.87c1.17,10.05-2.515,20.375-9.315,27.777
					c-8.165,8.887-18.962,13.233-30.409,16.102c-2.799,0.701-5.856,1.422-8.103,3.344c-2.274,1.945-3.425,4.988-4.478,7.699
					c-2.221,5.716-4.111,11.457-8.701,15.774c-4.245,3.993-9.643,6.367-15.125,8.154c-6.627,2.161-13.357,4.037-20.033,6.038
					c-6.704,2.009-13.4,4.048-20.113,6.027c-5.689,1.677-11.613,3.214-17.582,3.164c-6.38-0.053-12.081-1.901-17.127-5.853
					c-2.667-2.089-5.038-4.93-8.135-6.394c-2.74-1.296-5.914-1.401-8.885-1.7c-12.441-1.25-23.546-6.84-31.586-16.501
					c-3.324-3.995-5.118-10.56-9.328-13.626c-2.553-1.86-6.127-2.271-9.02-3.455c-2.639-1.08-5.114-2.583-7.422-4.25
					c-10.702-7.729-13.91-19.717-15.681-32.123c-1.8-12.608-3.12-25.749-0.763-38.378c1.139-6.103,3.189-12.064,6.48-17.343
					c1.646-2.639,3.477-5.114,5.694-7.303C1142.275,1988.512,1142.645,1988.171,1143.021,1987.834z"/>
				
					<linearGradient id="SVGID_00000145741825310559961250000012177347479572745399_" gradientUnits="userSpaceOnUse" x1="861.2327" y1="1905.0933" x2="1193.5104" y2="2609.814" gradientTransform="matrix(-0.7683 -0.6401 -0.6401 0.7683 3809.1167 645.1779)">
					<stop  offset="0.0036" style="stop-color:#E38DDD"/>
					<stop  offset="1" style="stop-color:#9571F6"/>
				</linearGradient>
				<path style="fill:url(#SVGID_00000145741825310559961250000012177347479572745399_);" d="M1295.622,1855.133
					c-10.735-12.382-25.774-21.551-41.914-24.127c4.34-16.246-1.48-34.738-16.15-45.045c-19.135-13.444-41.752-11.218-61.901-2.559
					c-16.9-5.148-35.941-4.382-52.06,2.683c-35.636,15.62-50.916,56.16-40.143,91.639c-15.526,4.586-28.175,16.71-32.872,32.79
					c-5.958,20.4,2.427,40.957,18.448,54.101c8.132,6.672,17.483,11.608,26.237,17.374c9.631,6.344,15.679,14.212,22.975,22.932
					c14.285,17.073,35.889,26.91,58.248,25.689c19.838-1.083,37.793-11.314,50.047-26.44c12.03,6.914,26.656,8.337,40.412,5.277
					c19.581-4.355,35.294-17.356,44.359-35.126C1329.655,1938.354,1321.884,1885.421,1295.622,1855.133z"/>
				<g>
					
						<linearGradient id="SVGID_00000167365518843074603690000005286579660928060592_" gradientUnits="userSpaceOnUse" x1="1134.2446" y1="1852.8204" x2="1592.8302" y2="1852.8204">
						<stop  offset="0.0036" style="stop-color:#E38DDD"/>
						<stop  offset="1" style="stop-color:#9571F6"/>
					</linearGradient>
					<path style="fill:url(#SVGID_00000167365518843074603690000005286579660928060592_);" d="M1460.013,2038.532
						c10.525-1.484,39.976-10.1,55.442-25.513c16.303-16.247,13.552-49.078,20.167-57.393c6.615-8.314,26.122-14.189,38.857-29.876
						c18.437-22.711,24.488-53.977,11.166-73.156c-5.735-8.256-22.479-21.483-20.205-33.59c2.579-5.958,21.523-17.04,18.904-53.916
						c-2.09-29.435-19.045-74.129-77.307-86.041c-11.398-6.637-9.983-32.215-39.79-44.547c-29.807-12.332-48.577,6.678-59.453,0.345
						c-10.876-6.333-37.061-22.219-63.763-22.948c-31.106-0.849-60.802,13.465-83.462,38.357
						c-5.644,6.2-10.382,12.968-14.496,19.985c-1.725,2.942-2.198,4.014-5.586,4.168c-4.008,0.182-7.885,0.123-11.944,0.554
						c-14.396,1.529-31.161,4.518-44.193,12.602c-26.322,16.329-41.589,46.537-43.339,73.744
						c-1.66,25.796,24.195,72.033,21.472,79.754c-2.724,7.721-29.416,32.937-28.198,63.85c1.55,39.32,21.021,71.758,56.606,88.952
						c15.688,7.581,58.988,17.6,70.428,25.249c11.439,7.649,9.183,44.366,27.133,60.663c19.488,17.693,40.837,16.527,70.75,8.011
						c16.178-4.606,25.938-2.465,39.325-13.563c15.432,4.743,35.735-3.79,48.637-16.411
						C1452.996,2052.106,1449.488,2040.016,1460.013,2038.532z"/>
				</g>
				<g style="opacity:0.3;">
					
						<linearGradient id="SVGID_00000040560510844057161490000010973383028623677361_" gradientUnits="userSpaceOnUse" x1="1002.7869" y1="2334.4185" x2="1314.7776" y2="2334.4185" gradientTransform="matrix(-0.7683 -0.6401 -0.6401 0.7683 3809.1167 645.1779)">
						<stop  offset="0.0036" style="stop-color:#E38DDD"/>
						<stop  offset="1" style="stop-color:#9571F6"/>
					</linearGradient>
					<path style="fill:url(#SVGID_00000040560510844057161490000010973383028623677361_);" d="M1504.425,1718.35
						c-41.064-5.909-70.754,28.315-108.917,33.077c-38.163,4.762-47.219-45.232-68.218-70.98
						c-7.309-9.627-17.171-19.021-27.031-21.339c-15.261-4.026-31.067-4.257-46.303-0.804c2.063-2.766,4.254-5.46,6.613-8.051
						c22.66-24.892,52.355-39.206,83.461-38.357c26.702,0.729,52.887,16.615,63.763,22.948c10.876,6.333,29.646-12.676,59.453-0.345
						c29.808,12.331,28.393,37.91,39.79,44.547c49.697,10.161,69.336,44.173,75.334,72.222c-0.809-0.614-1.618-1.228-2.427-1.843
						C1559.063,1732.029,1533.077,1722.173,1504.425,1718.35z"/>
					
						<linearGradient id="SVGID_00000005256986594912897450000011183892316574346117_" gradientUnits="userSpaceOnUse" x1="886.516" y1="2584.5898" x2="1353.7031" y2="2584.5898" gradientTransform="matrix(-0.7683 -0.6401 -0.6401 0.7683 3809.1167 645.1779)">
						<stop  offset="0.0036" style="stop-color:#E38DDD"/>
						<stop  offset="1" style="stop-color:#9571F6"/>
					</linearGradient>
					<path style="fill:url(#SVGID_00000005256986594912897450000011183892316574346117_);" d="M1184.351,1687.563
						c8.952-5.553,19.665-8.702,30.161-10.625c-16.101,13.643-38.95,31.686-28.268,51.092
						c17.753,32.477,54.992,52.886,65.554,91.164c10.794,40.83-29.337,66.356-62.046,81.557c-11.715,5.57-12.641,16.59-8.464,27.145
						c11.025,29.23,36.316,52.657,66.476,58.916c71.457,14.72,139.081-5.591,211.347-10.242
						c19.139-1.743,35.845,12.174,50.347,23.075c6.809-6.049,13.393-12.327,19.804-18.783c-2.174,11.411-5.539,23.916-13.808,32.157
						c-15.466,15.413-44.917,24.029-55.442,25.513c-10.525,1.484-7.017,13.574-12.849,19.28
						c-12.902,12.621-33.205,21.154-48.637,16.41c-13.387,11.099-23.147,8.958-39.325,13.564
						c-29.914,8.516-51.262,9.682-70.75-8.011c-17.95-16.297-15.693-53.014-27.133-60.663
						c-11.439-7.649-54.739-17.669-70.428-25.249c-35.585-17.194-55.056-49.632-56.606-88.952
						c-1.219-30.913,25.474-56.129,28.198-63.851c2.724-7.721-23.132-53.957-21.471-79.753
						C1142.762,1734.1,1158.029,1703.892,1184.351,1687.563z"/>
				</g>
				
					<linearGradient id="SVGID_00000159468073767017196550000004303803880043630992_" gradientUnits="userSpaceOnUse" x1="951.2173" y1="2652.5801" x2="2123.1575" y2="1972.8914" gradientTransform="matrix(-0.7683 -0.6401 -0.6401 0.7683 3809.1167 645.1779)">
					<stop  offset="0" style="stop-color:#FFC444"/>
					<stop  offset="0.9964" style="stop-color:#F36F56"/>
				</linearGradient>
				<path style="fill:url(#SVGID_00000159468073767017196550000004303803880043630992_);" d="M1226.409,1884.597
					c105.302,84.35,135.258,236.077,135.258,236.077l97.998-61.314c-134.213-154.079-102.916-217.713-104.045-283.522
					c0,0-8.164-16.021-13.824,2.361c-2.991,9.714-7.028,49.048-0.399,92.771c-31.698-46.922-26.722-87.913-37.741-100.465
					c-3.746-4.267-14.185-3.064-14.185-3.064s15.285,110.675,75.515,230.465c0,0-67.255-116.657-105.03-143.064
					c-7.07-4.802-11.937,1.235-6.283,12.407c0,0,17.295,20.1,36.431,54.398c-33.774-29.215-39.427-36.241-51.328-46.157
					C1226.876,1865.574,1220.965,1873.496,1226.409,1884.597z"/>
				
					<linearGradient id="SVGID_00000087388258824609168490000001167924517362993339_" gradientUnits="userSpaceOnUse" x1="1426.7316" y1="1838.8153" x2="1635.5924" y2="1838.8153">
					<stop  offset="0.0036" style="stop-color:#E38DDD"/>
					<stop  offset="1" style="stop-color:#9571F6"/>
				</linearGradient>
				<path style="fill:url(#SVGID_00000087388258824609168490000001167924517362993339_);" d="M1609.417,1871.673
					c13.329-2.98,22.872-15.256,25.312-29.284c2.986-17.167-2.013-35.512-11.227-50.044c-17.011-26.828-49.644-39.031-79.901-32.326
					c-4.673-9.204-13.973-16.104-24.435-16.933c-9.641-0.764-18.215,3.252-24.162,9.92c-5.41-0.247-10.779,0.16-15.944,1.458
					c-12.797,3.217-23.661,14.773-23.786,27.714c-17.662,6.388-27.08,28.489-28.338,46.301c-0.898,12.717,0.92,26.925,10.518,36.238
					c3.984,3.865,9.308,4.666,9.802,10.656c0.469,5.702,1.051,11.239,3.267,16.592c4.433,10.706,12.629,19.428,22.813,24.881
					c4.357,2.333,9.284,3.988,14.17,4.747c5.61,0.872,12.395-1.32,17.677,0.216c3.046,0.886,5.909,4.135,8.48,5.918
					c2.439,1.692,4.974,3.243,7.742,4.335c5.186,2.046,10.729,2.785,16.28,2.522c10.66-0.505,20.904-5.148,29.899-10.587
					C1586.323,1912.67,1606.233,1894.241,1609.417,1871.673z"/>
				
					<linearGradient id="SVGID_00000163788976253645404520000014827462355246172308_" gradientUnits="userSpaceOnUse" x1="897.0597" y1="2381.8894" x2="1074.4027" y2="2381.8894" gradientTransform="matrix(-0.7683 -0.6401 -0.6401 0.7683 3809.1167 645.1779)">
					<stop  offset="0.0036" style="stop-color:#E38DDD"/>
					<stop  offset="1" style="stop-color:#9571F6"/>
				</linearGradient>
				<path style="opacity:0.3;fill:url(#SVGID_00000163788976253645404520000014827462355246172308_);" d="M1458.398,1862.775
					c4.989,5.335,12.298,14.962,15.894,12.061c32.823-28.077,75.165-8.132,111.822-1.178c21.576,3.824,32.94-19.725,39.201-35.734
					c2.986-6.937,5.88-15.5,7.633-24.393c2.627,9.413,3.44,19.317,1.781,28.858c-2.44,14.028-11.982,26.304-25.312,29.283
					c-3.183,22.568-23.094,40.997-41.833,52.326c-8.995,5.438-19.24,10.081-29.899,10.587c-5.552,0.263-11.094-0.476-16.28-2.522
					c-2.768-1.092-5.303-2.643-7.742-4.335c-2.571-1.783-5.434-5.032-8.48-5.918c-5.282-1.536-12.067,0.656-17.677-0.216
					c-4.886-0.759-9.813-2.414-14.169-4.747c-10.184-5.453-18.38-14.175-22.813-24.881c-2.216-5.353-2.798-10.891-3.267-16.592
					c-0.493-5.99-5.818-6.791-9.802-10.656c-9.598-9.313-11.416-23.522-10.518-36.238c0.067-0.94,0.161-1.895,0.273-2.856
					C1437.468,1837.874,1447.121,1850.516,1458.398,1862.775z"/>
				
					<linearGradient id="SVGID_00000133509378829134197820000000773966825387670206_" gradientUnits="userSpaceOnUse" x1="1063.359" y1="1944.8998" x2="1308.8384" y2="1944.8998">
					<stop  offset="0.0036" style="stop-color:#E38DDD"/>
					<stop  offset="1" style="stop-color:#9571F6"/>
				</linearGradient>
				<path style="fill:url(#SVGID_00000133509378829134197820000000773966825387670206_);" d="M1263.014,1831.343
					c-11.458-9.278-25.443-15.124-39.151-20.193c-13.489-4.988-27.34-8.299-40.987-1.719c-2.943,1.419-5.811,3.096-8.344,5.17
					c-2.775,2.273-5.141,5.656-8.413,7.217c-5.395,2.574-13.001,0.799-18.849,1.972c-14.143,2.837-25.85,10.992-33.908,22.866
					c-1.924,2.835-3.764,5.981-6.568,8.039c-3.169,2.326-7.332,3.167-10.896,4.718c-6.745,2.935-11.724,7.679-15.262,14.089
					c-3.311,5.997-4.995,12.816-6.411,19.474c-1.67,7.856-3.269,15.728-4.903,23.591c-1.627,7.832-3.41,15.649-4.848,23.518
					c-1.19,6.51-1.743,13.254-0.032,19.72c1.85,6.991,6.613,12.034,11.169,17.398c2.161,2.544,4.603,5.367,5.325,8.725
					c0.712,3.316-0.23,6.796-1.051,10.004c-3.357,13.12-4.868,26.391-0.359,39.487c3.901,11.328,12.813,21.004,24.201,25.067
					c1.01,0.36,2.035,0.656,3.067,0.919c0.021,1.492,0.49,2.938,1.546,4.052c17.409,18.342,46.315,24.204,69.222,12.635
					c6.393-3.229,11.068-7.758,16.655-12.09c5.346-4.145,12.186-3.844,18.499-5.458c13.661-3.491,18.636-14.849,23.061-26.975
					c2.013-5.516,4.138-10.703,8.856-14.456c5.43-4.319,11.828-7.21,17.297-11.471c5.568-4.338,9.828-9.856,11.969-16.621
					c1.904-6.016,2.241-12.648,4.939-18.388c3.005-6.394,9.36-10.806,13.809-16.141c4.076-4.887,7.469-10.483,10.049-16.296
					c5.367-12.089,7.697-26.461,5.041-39.518c-1.44-7.078-4.098-14.078-8.941-19.556c-2.441-2.761-5.16-4.92-8.183-6.995
					c-2.66-1.826-5.32-3.469-6.603-6.547c-1.384-3.319-1.77-7.044-2.771-10.486c-0.998-3.434-2.495-6.634-4.26-9.736
					C1273.448,1841.151,1268.551,1835.826,1263.014,1831.343z"/>
				
					<linearGradient id="SVGID_00000063609563434787445600000010714698025001265840_" gradientUnits="userSpaceOnUse" x1="1083.802" y1="2718.884" x2="1310.6769" y2="2718.884" gradientTransform="matrix(-0.7683 -0.6401 -0.6401 0.7683 3809.1167 645.1779)">
					<stop  offset="0.0036" style="stop-color:#E38DDD"/>
					<stop  offset="1" style="stop-color:#9571F6"/>
				</linearGradient>
				<path style="fill:url(#SVGID_00000063609563434787445600000010714698025001265840_);" d="M1095.898,1859.411
					c3.564-1.551,7.727-2.393,10.897-4.718c2.804-2.058,4.644-5.204,6.568-8.039c6.433-9.481,15.199-16.58,25.668-20.505
					c-0.884,1.398-1.766,2.799-2.648,4.199c-1.16,1.392-2.667,6.032-3.131,8.004c-11.596,20.998-32.588,44.781-20.985,66.238
					c5.57,11.715,21.462,16.7,27.612,27.719c10.442,15.774,3.95,36.307,7.549,54.634c1.858,13.34-0.575,29,14.737,34.681
					c25.305,9.156,53.672,9.379,78.902,1.168c-2.395,3.172-3.872,6.89-5.29,10.775c-4.424,12.126-9.4,23.484-23.061,26.976
					c-6.313,1.613-13.153,1.313-18.499,5.457c-5.587,4.331-10.262,8.861-16.655,12.09c-22.907,11.568-51.813,5.706-69.222-12.636
					c-1.057-1.113-1.525-2.56-1.546-4.052c-1.032-0.262-2.058-0.559-3.068-0.919c-11.387-4.063-20.3-13.739-24.201-25.067
					c-4.51-13.095-2.998-26.366,0.359-39.487c0.821-3.208,1.764-6.688,1.051-10.004c-0.721-3.358-3.164-6.181-5.325-8.725
					c-4.556-5.364-9.319-10.407-11.169-17.398c-1.711-6.465-1.158-13.21,0.032-19.72c1.439-7.869,3.221-15.686,4.848-23.518
					c1.634-7.864,3.233-15.735,4.903-23.591c1.415-6.658,3.1-13.476,6.411-19.474
					C1084.174,1867.09,1089.153,1862.345,1095.898,1859.411z"/>
				
					<linearGradient id="SVGID_00000075872646592023957750000001544062418917759117_" gradientUnits="userSpaceOnUse" x1="1226.1064" y1="1796.2242" x2="1509.2854" y2="1796.2242">
					<stop  offset="0.0036" style="stop-color:#E38DDD"/>
					<stop  offset="1" style="stop-color:#9571F6"/>
				</linearGradient>
				<path style="fill:url(#SVGID_00000075872646592023957750000001544062418917759117_);" d="M1401.914,1673.02
					c-16.945-0.308-34.397,4.915-47.539,15.545c-9.491-14.572-27.736-22.886-45.807-18.734
					c-23.571,5.417-37.501,24.348-44.777,45.829c-15.646,9.435-28.225,24.606-33.94,41.887
					c-12.634,38.205,7.972,77.992,42.705,94.243c-7.211,15.111-6.636,33.222,2.481,47.954c11.566,18.69,33.173,26.458,54.36,23.229
					c10.755-1.639,21.017-5.416,31.505-8.159c11.539-3.018,21.772-2.228,33.523-1.807c23.007,0.823,45.512-8.987,60.037-27.024
					c12.887-16.004,17.437-36.886,14.28-56.769c13.637-4.469,24.846-14.732,32.006-27.425c10.193-18.069,11.063-39.143,3.667-58.403
					C1489.445,1704.404,1443.366,1673.773,1401.914,1673.02z"/>
				
					<linearGradient id="SVGID_00000072999033541232036560000013164595709908253337_" gradientUnits="userSpaceOnUse" x1="1014.8196" y1="2447.6104" x2="1274.7139" y2="2447.6104" gradientTransform="matrix(-0.7683 -0.6401 -0.6401 0.7683 3809.1167 645.1779)">
					<stop  offset="0.0036" style="stop-color:#E38DDD"/>
					<stop  offset="1" style="stop-color:#9571F6"/>
				</linearGradient>
				<path style="opacity:0.3;fill:url(#SVGID_00000072999033541232036560000013164595709908253337_);" d="M1248.548,1804.694
					c10.792,26.678,41.416,30.965,67.748,30.496c30.739-1.513,43.388,31.428,67.866,45.924c4.756,2.783,9.976,3.594,14.732-0.698
					c21.108-22.507,15.767-52.898,12.514-81.549c-2.322-11.367,6.609-19.257,17.86-22.854c10.092-2.206,19.024,4.057,25.985,9.856
					c19.53-26.526,22.428-64.414,6.935-92.597c18.979,12.671,34.62,30.31,42.225,50.115c7.396,19.26,6.526,40.334-3.667,58.403
					c-7.16,12.693-18.369,22.956-32.006,27.425c3.158,19.883-1.393,40.765-14.28,56.769c-14.524,18.037-37.03,27.846-60.037,27.024
					c-11.751-0.42-21.983-1.211-33.523,1.808c-10.488,2.743-20.75,6.52-31.505,8.159c-21.187,3.229-42.794-4.539-54.36-23.229
					c-9.116-14.731-9.692-32.843-2.481-47.954c-34.732-16.251-55.339-56.038-42.704-94.243
					c3.625-10.964,10.021-21.073,18.204-29.412C1239.24,1752.657,1238.523,1780.16,1248.548,1804.694z"/>
				
					<linearGradient id="SVGID_00000176025990882658555880000007156369313876202936_" gradientUnits="userSpaceOnUse" x1="919.4517" y1="2545.209" x2="915.5354" y2="2789.0073" gradientTransform="matrix(-0.7683 -0.6401 -0.6401 0.7683 3809.1167 645.1779)">
					<stop  offset="0" style="stop-color:#FFC444"/>
					<stop  offset="0.9964" style="stop-color:#F36F56"/>
				</linearGradient>
				<path style="fill:url(#SVGID_00000176025990882658555880000007156369313876202936_);" d="M1458.539,2056.513
					c-13.745-11.45-101.109,27.165-97.999,61.314C1363.65,2151.976,1485.67,2079.115,1458.539,2056.513z"/>
			</g>
			<g>
				
					<linearGradient id="SVGID_00000050645294847257976340000017625439568293633962_" gradientUnits="userSpaceOnUse" x1="815.2258" y1="1506.9362" x2="840.3992" y2="1270.6919">
					<stop  offset="0" style="stop-color:#AA80F9"/>
					<stop  offset="0.9964" style="stop-color:#6165D7"/>
				</linearGradient>
				<path style="fill:url(#SVGID_00000050645294847257976340000017625439568293633962_);" d="M969.543,1471.349l-293.533-2.167
					v-67.782c0-6.389,5.372-11.464,11.751-11.101l271.295,15.45c5.886,0.335,10.487,5.206,10.487,11.101V1471.349z"/>
				<path style="fill:#D8DEE8;" d="M972.904,1471.349l-293.533-16.716v-53.233c0-6.389,5.372-11.464,11.751-11.101l271.295,15.45
					c5.886,0.335,10.487,5.206,10.487,11.101V1471.349z"/>
				<g>
					<polygon style="fill:#FFFFFF;" points="1123.135,2341.445 836.631,2357.37 836.631,1524.309 1123.135,1540.231 					"/>
					<g>
						
							<linearGradient id="SVGID_00000137812329843887056120000003277460585639887026_" gradientUnits="userSpaceOnUse" x1="896.1997" y1="2000.8859" x2="1092.729" y2="2011.7181">
							<stop  offset="0.0036" style="stop-color:#EBEFF2"/>
							<stop  offset="1" style="stop-color:#FFFFFF"/>
						</linearGradient>
						<path style="fill:url(#SVGID_00000137812329843887056120000003277460585639887026_);" d="M1029.041,1652.746
							c-73.16,18.516,41.38,113.485-23.253,133.333c-51.319,15.76-45.203-127.172-92.164-86.597
							c-47.563,41.095,15.586,163.644,47.59,257.736c31.729,93.282,33.384,227.951-62.099,204.344
							c-26.702-6.602-46.12-16.26-62.483-26.965v222.773l286.504-15.925v-656.96
							C1100.356,1658.814,1067.656,1642.973,1029.041,1652.746z"/>
					</g>
				</g>
				<g>
					
						<linearGradient id="SVGID_00000101804321280966244290000008164040550258690203_" gradientUnits="userSpaceOnUse" x1="550.459" y1="1941.1045" x2="836.7809" y2="1941.1045">
						<stop  offset="0" style="stop-color:#AA80F9"/>
						<stop  offset="0.9964" style="stop-color:#6165D7"/>
					</linearGradient>
					<polygon style="fill:url(#SVGID_00000101804321280966244290000008164040550258690203_);" points="836.781,2357.37 
						550.459,2304.755 550.459,1615.747 836.781,1524.839 					"/>
					
						<linearGradient id="SVGID_00000013168596404086396090000002036372829572893611_" gradientUnits="userSpaceOnUse" x1="619.5691" y1="1535.3989" x2="713.7977" y2="1575.9791">
						<stop  offset="0.0036" style="stop-color:#EBEFF2"/>
						<stop  offset="1" style="stop-color:#FFFFFF"/>
					</linearGradient>
					<polygon style="fill:url(#SVGID_00000013168596404086396090000002036372829572893611_);" points="836.781,1524.839 
						550.459,1615.747 680.116,1451.363 680.116,1451.363 					"/>
					<g style="opacity:0.3;">
						<polygon style="fill:#E6E6E6;" points="680.116,1451.363 550.459,1615.747 718.108,1469.181 						"/>
					</g>
					<path style="fill:#D8DEE8;" d="M550.459,2143.394v161.362l286.322,52.615v-222.52c-48.842-30.962-71.727-65.968-151.214-73.682
						C633.717,2056.137,584.637,2100.565,550.459,2143.394z"/>
					<g>
						
							<linearGradient id="SVGID_00000183941499813023369650000003195880797061365163_" gradientUnits="userSpaceOnUse" x1="579.555" y1="1933.0055" x2="692.607" y2="1933.0055">
							<stop  offset="0.0036" style="stop-color:#EBEFF2"/>
							<stop  offset="1" style="stop-color:#FFFFFF"/>
						</linearGradient>
						<path style="fill:url(#SVGID_00000183941499813023369650000003195880797061365163_);" d="M620.801,1905.44v0.292
							l43.952,16.821v23.304l-43.952,19.63v0.291l71.806-0.406v24.934l-113.052-1.673v-24.448l63.908-29.151v-0.297l-63.908-25.068
							v-25.01l113.052-8.954v25.553L620.801,1905.44z"/>
						
							<linearGradient id="SVGID_00000039111124966843475660000014413659895477429905_" gradientUnits="userSpaceOnUse" x1="579.555" y1="1841.0386" x2="692.607" y2="1841.0386">
							<stop  offset="0.0036" style="stop-color:#EBEFF2"/>
							<stop  offset="1" style="stop-color:#FFFFFF"/>
						</linearGradient>
						<path style="fill:url(#SVGID_00000039111124966843475660000014413659895477429905_);" d="M692.607,1849.843l-113.052,11.352
							v-26.275l113.052-14.037V1849.843z"/>
						
							<linearGradient id="SVGID_00000139983821538295156770000006542215619245451668_" gradientUnits="userSpaceOnUse" x1="579.555" y1="1765.8397" x2="692.607" y2="1765.8397">
							<stop  offset="0.0036" style="stop-color:#EBEFF2"/>
							<stop  offset="1" style="stop-color:#FFFFFF"/>
						</linearGradient>
						<path style="fill:url(#SVGID_00000139983821538295156770000006542215619245451668_);" d="M579.555,1786.869l89.45-14.992
							v-46.775l23.602-4.879v74.8l-113.052,16.435V1786.869z"/>
						
							<linearGradient id="SVGID_00000167380494516152829100000010560749108689931162_" gradientUnits="userSpaceOnUse" x1="579.555" y1="1666.6938" x2="692.607" y2="1666.6938">
							<stop  offset="0.0036" style="stop-color:#EBEFF2"/>
							<stop  offset="1" style="stop-color:#FFFFFF"/>
						</linearGradient>
						<path style="fill:url(#SVGID_00000167380494516152829100000010560749108689931162_);" d="M579.555,1701.865l45.799-11.196
							v-0.293l-45.799-19.845v-27.68l51.465,22.905l61.587-58.12v30.508l-55.865,49.444v0.295l55.865-13.656v26.327l-113.052,25.194
							V1701.865z"/>
					</g>
				</g>
				
					<linearGradient id="SVGID_00000017504629934466619000000002069185930231778955_" gradientUnits="userSpaceOnUse" x1="895.9078" y1="1549.4559" x2="916.0248" y2="1360.6642">
					<stop  offset="0.0036" style="stop-color:#EBEFF2"/>
					<stop  offset="1" style="stop-color:#FFFFFF"/>
				</linearGradient>
				<polygon style="fill:url(#SVGID_00000017504629934466619000000002069185930231778955_);" points="680.116,1451.363 
					972.904,1464.538 1123.135,1540.231 836.781,1524.839 				"/>
				<polygon style="fill:#E6E6E6;" points="836.781,1524.839 680.116,1451.363 702.056,1481.073 				"/>
			</g>
			<g>
				
					<linearGradient id="SVGID_00000122715405047249117410000009536783674063197629_" gradientUnits="userSpaceOnUse" x1="1028.7191" y1="1684.5428" x2="1070.1559" y2="1684.5428">
					<stop  offset="0" style="stop-color:#311944"/>
					<stop  offset="1" style="stop-color:#893976"/>
				</linearGradient>
				<path style="fill:url(#SVGID_00000122715405047249117410000009536783674063197629_);" d="M1069.162,1623.443
					c-1.476-3.481-4.445-6.109-8.079-7.151c-8.747-2.508-18.085,4.431-22.642,12.307c-20.615,35.624-2.037,124.717-2.037,124.717
					h13.896c-7.164-67.911,8.126-96.68,18.385-115.936C1070.462,1634.042,1070.638,1626.923,1069.162,1623.443z"/>
				
					<linearGradient id="SVGID_00000068639966572849416020000002646574455983803821_" gradientUnits="userSpaceOnUse" x1="887.4052" y1="1887.4379" x2="1276.4307" y2="1887.4379">
					<stop  offset="0" style="stop-color:#FF9085"/>
					<stop  offset="1" style="stop-color:#FB6FBB"/>
				</linearGradient>
				<path style="fill:url(#SVGID_00000068639966572849416020000002646574455983803821_);" d="M1272.709,1854.805
					c-4.541,26.844-10.094,58.228-18.714,88.749c-9.915,35.091-23.851,69.081-44.888,93.766
					c-34.243,40.198-68.486,17.866-145.905,17.866c-49.772,0-65.776-21.484-92.56-58.883
					c-30.327-42.327-68.188-76.881-80.129-129.407c-10.928-48.119,7.355-102.858,48.491-113.581h0.015
					c11.985-17.871,25.921-11.376,41.627-10.661c12.149,0.551,23.702-0.418,34.958-0.179c26.381,0.536,51.26-1.802,79.056-11.062
					c40.511-13.504,132.342-36.007,163.919,7.913C1280.095,1769.235,1278.442,1820.771,1272.709,1854.805z"/>
				
					<linearGradient id="SVGID_00000060723693860264575730000011345669969282845873_" gradientUnits="userSpaceOnUse" x1="887.4052" y1="1907.3435" x2="1253.9952" y2="1907.3435">
					<stop  offset="0" style="stop-color:#FF9085"/>
					<stop  offset="1" style="stop-color:#FB6FBB"/>
				</linearGradient>
				<path style="opacity:0.3;fill:url(#SVGID_00000060723693860264575730000011345669969282845873_);" d="M1253.995,1943.554
					c-9.915,35.091-23.851,69.081-44.888,93.766c-34.243,40.198-68.486,17.866-145.905,17.866c-49.772,0-65.776-21.484-92.56-58.883
					c-30.327-42.327-68.188-76.881-80.129-129.407c-10.928-48.119,7.355-102.858,48.491-113.581h0.015
					c0,0-50.754,123.392,41.553,149.446c92.307,26.054,99.007,130.182,180.892,84.773
					C1198.12,1967.212,1229.861,1949.777,1253.995,1943.554z"/>
				<path style="opacity:0.5;fill:#FFFFFF;" d="M1189.753,1741.526c0,0-74.441-12.621-52.109,41.091
					c22.332,53.712,83.374,105.225,104.218,68.302C1262.705,1813.996,1232.928,1755.407,1189.753,1741.526z"/>
			</g>
			<g>
				
					<linearGradient id="SVGID_00000033354680784981343460000007992760633127379342_" gradientUnits="userSpaceOnUse" x1="312.8434" y1="1413.1018" x2="668.3163" y2="2718.2358">
					<stop  offset="0" style="stop-color:#FFC444"/>
					<stop  offset="0.3138" style="stop-color:#FBA94A"/>
					<stop  offset="0.9964" style="stop-color:#F36F56"/>
				</linearGradient>
				<path style="fill:url(#SVGID_00000033354680784981343460000007992760633127379342_);" d="M696.303,2245.895l-37.429,459.2
					l-6.043,108.021c-13.249,69.702-27.21,118.423-39.921,118.69c-29.433,0.533-71.307-52.899-102.685-96.552
					c-12.72-17.781-23.65-33.962-31.386-44.186c-26.672-35.562,6.668-355.624,15.559-397.854
					c8.891-42.23,14.847-372.693,11.825-388.963c-2.934-16.27,23.737-155.585,23.737-155.585l38.94,44.453l2.579,2.935L630.692,1862
					l26.672,41.518C657.364,1903.518,682.169,2112.981,696.303,2245.895z"/>
				
					<linearGradient id="SVGID_00000105404674743434714590000005194474120293964674_" gradientUnits="userSpaceOnUse" x1="606.9478" y1="2378.7529" x2="290.2411" y2="3264.8589">
					<stop  offset="0" style="stop-color:#FFC444"/>
					<stop  offset="0.3138" style="stop-color:#FBA94A"/>
					<stop  offset="0.9964" style="stop-color:#F36F56"/>
				</linearGradient>
				<path style="opacity:0.7;fill:url(#SVGID_00000105404674743434714590000005194474120293964674_);" d="M696.303,2245.895
					l-37.429,459.2l-6.043,108.021c-13.249,69.702-27.21,118.423-39.921,118.69c-29.433,0.533-71.307-52.899-102.685-96.552
					c23.381-89.261,80.189-309.303,76.994-331.619c-3.473-25.16-15.741-507.386-18.32-610.517l2.579,2.935L630.692,1862
					l26.672,41.518C657.364,1903.518,682.169,2112.981,696.303,2245.895z"/>
				
					<linearGradient id="SVGID_00000103230530839328982550000014579650146265158544_" gradientUnits="userSpaceOnUse" x1="1133.9469" y1="2399.2627" x2="716.0801" y2="3568.4021">
					<stop  offset="0" style="stop-color:#FFC444"/>
					<stop  offset="0.3138" style="stop-color:#FBA94A"/>
					<stop  offset="0.9964" style="stop-color:#F36F56"/>
				</linearGradient>
				<path style="fill:url(#SVGID_00000103230530839328982550000014579650146265158544_);" d="M1626.169,2831.341
					c0.981,36.273-17.781,68.546-46.676,86.505c-13.952,8.624-30.223,13.869-47.83,14.669
					c-271.25,11.291-898.219,76.193-918.752-0.711c-23.65-88.906,68.19-491.917,65.256-542.326
					c-3.021-50.322-20.803-485.961-20.803-485.961l45.79,11.38l13.51,3.38l97.796-44.453l85.971,47.474l112.556-47.474
					l85.971,50.409l85.971-35.562l71.125,35.562l88.906-50.409l56.278,44.453l91.84-44.453l53.344,50.409l56.365-50.409
					l2.935,47.474C1605.722,1921.299,1619.501,2575.469,1626.169,2831.341z"/>
				
					<linearGradient id="SVGID_00000070828026496669008950000005309118576362525352_" gradientUnits="userSpaceOnUse" x1="1064.8719" y1="2560.5264" x2="753.5287" y2="3431.626">
					<stop  offset="0" style="stop-color:#FFC444"/>
					<stop  offset="0.3138" style="stop-color:#FBA94A"/>
					<stop  offset="0.9964" style="stop-color:#F36F56"/>
				</linearGradient>
				<path style="opacity:0.2;fill:url(#SVGID_00000070828026496669008950000005309118576362525352_);" d="M1579.493,2917.846
					c-13.952,8.624-30.223,13.869-47.83,14.669c-271.25,11.291-898.219,76.193-918.752-0.711
					c-23.65-88.906,68.19-491.917,65.256-542.326c-3.021-50.322-20.803-485.961-20.803-485.961l45.79,11.38
					c37.516,22.671,83.836,64.19,89.522,71.926c100.201,135.493-30.405,391.631,143.048,482.226
					c111.671,58.233,253.92,11.469,362.118,78.237c43.116,26.672,76.195,70.68,89.887,119.49
					c14.395,51.476-2.136,112.466,36.005,155.941C1460.364,2864.503,1523.215,2888.418,1579.493,2917.846z"/>
			</g>
		</g>
		<g>
			
				<linearGradient id="SVGID_00000016051019564113841080000003988805044243371420_" gradientUnits="userSpaceOnUse" x1="1220.9343" y1="3785.5745" x2="1472.0802" y2="2931.6763" gradientTransform="matrix(-1 0 0 1 4041.4624 0)">
				<stop  offset="0" style="stop-color:#311944"/>
				<stop  offset="1" style="stop-color:#893976"/>
			</linearGradient>
			<polygon style="fill:url(#SVGID_00000016051019564113841080000003988805044243371420_);" points="3155.971,2835.954 
				3122.289,2879.344 2804.39,2922.927 2184.74,3114.593 1870.478,3004.617 2075.951,2793.305 3121.502,2575.644 3218.014,2687.811 
							"/>
			
				<linearGradient id="SVGID_00000117637620768959091820000004684472584058830486_" gradientUnits="userSpaceOnUse" x1="1905.4806" y1="3036.6055" x2="2212.5547" y2="3036.6055" gradientTransform="matrix(-1 0 0 1 4041.4624 0)">
				<stop  offset="0" style="stop-color:#444B8C"/>
				<stop  offset="0.9964" style="stop-color:#3E4177"/>
			</linearGradient>
			<path style="fill:url(#SVGID_00000117637620768959091820000004684472584058830486_);" d="M1882.924,3173.467
				c1.723,0.758,5.205,2.103,5.205,2.103L1988.145,3218l51.324-20.888l96.512-69.799v-151.662l-4.825-63.25l-112.472-50.635
				c-56.356-24.852-132.118,23.129-169.207,107.198C1812.423,3052.999,1826.533,3148.615,1882.924,3173.467z"/>
			
				<linearGradient id="SVGID_00000177466210190309464050000003967016362267660442_" gradientUnits="userSpaceOnUse" x1="959.3142" y1="2846.3916" x2="1211.6664" y2="2846.3916" gradientTransform="matrix(-1 0 0 1 4041.4624 0)">
				<stop  offset="0" style="stop-color:#444B8C"/>
				<stop  offset="0.9964" style="stop-color:#3E4177"/>
			</linearGradient>
			<path style="fill:url(#SVGID_00000177466210190309464050000003967016362267660442_);" d="M2868.287,2954.982l90.601,39.144
				l111.196-80.071l12.064-109.025l-15.304-74.59l-78.278-26.782c-2.241-0.931-4.516-1.655-6.791-2.344l-0.551-0.173l-0.034,0.035
				c-46.326-12.995-102.958,25.335-130.774,90.86C2820.531,2862.317,2820.376,2932.819,2868.287,2954.982z"/>
			
				<ellipse transform="matrix(0.4036 -0.9149 0.9149 0.4036 -1575.6151 3716.6685)" style="fill:#D8DEE8;" cx="2062.994" cy="3066.881" rx="168.852" ry="113.237"/>
			
				<ellipse transform="matrix(0.4036 -0.9149 0.9149 0.4036 -1584.1992 3712.4756)" style="fill:#FFFFFF;" cx="2055.488" cy="3071.369" rx="104.302" ry="69.948"/>
			
				<ellipse transform="matrix(0.3644 -0.9313 0.9313 0.3644 -750.0325 4627.123)" style="fill:#D8DEE8;" cx="3014.58" cy="2862.997" rx="142.524" ry="98.331"/>
			
				<ellipse transform="matrix(0.3644 -0.9313 0.9313 0.3644 -757.5042 4623.5737)" style="fill:#FFFFFF;" cx="3008.237" cy="2866.695" rx="88.038" ry="60.74"/>
			
				<linearGradient id="SVGID_00000016036604639917683610000012785807218201355430_" gradientUnits="userSpaceOnUse" x1="1707.8633" y1="2392.5347" x2="1399.9424" y2="3130.1653" gradientTransform="matrix(-1 0 0 1 4041.4624 0)">
				<stop  offset="0" style="stop-color:#FF9085"/>
				<stop  offset="1" style="stop-color:#FB6FBB"/>
			</linearGradient>
			<path style="fill:url(#SVGID_00000016036604639917683610000012785807218201355430_);" d="M1807.667,3166.241
				c32.565,1.118,62.354,1.725,85.105,2.055c24.25,0.352,45.406-16.561,50.207-40.334c7.128-35.304,17.8-63.146,26.863-82.948
				c8.791-19.13,70.834-154.351,170.448-162.417c13.926-1.137,30.781-1.827,45.74,8.1c52.53,34.813,20.579,159.073,20.579,159.073
				l-21.509,63.767l698.118-173.694c13.962-3.474,25.438-13.373,30.906-26.681c12.199-29.693,34.877-84.147,51.693-120.183
				c24.128-51.703,67.214-101.683,110.3-101.683c43.086,0,53.426,13.788,62.044,43.086c8.617,29.299-13.788,118.917-13.788,144.769
				c0,0,73.246-56.012,91.342-74.108c40.363-40.363,38.399-92.755,41.363-122.364c11.443-114.574-36.949-211.806-67.214-241.281
				c-39.121-38.099-92.066-58.838-138.082-88.24c-38.777-32.09-99.924-70.041-176.307-105.578h-0.034
				c-20.302-4.067-42.191-7.652-65.871-10.686c-159.556-20.371-374.571,137.358-374.571,137.358s-367.092,239.489-588.829,602.548
				C1823.523,3013.855,1787.814,3096.855,1807.667,3166.241z"/>
			
				<linearGradient id="SVGID_00000162349565382941166980000005420401806051208106_" gradientUnits="userSpaceOnUse" x1="1315.8557" y1="2622.9004" x2="1156.4838" y2="3004.6787" gradientTransform="matrix(-1 0 0 1 4041.4624 0)">
				<stop  offset="0" style="stop-color:#FF9085"/>
				<stop  offset="1" style="stop-color:#FB6FBB"/>
			</linearGradient>
			<path style="opacity:0.3;fill:url(#SVGID_00000162349565382941166980000005420401806051208106_);" d="M2862.836,2763.276
				c33.741-84.352,124.84-118.092,205.818-151.833c64.107-26.992,57.359-131.588,111.344-178.825
				c0.034-0.029,0.071-0.054,0.105-0.083c3.326,2.863,6.603,5.788,9.76,8.863c30.266,29.475,78.658,126.707,67.214,241.281
				c-2.964,29.609-1,82.001-41.362,122.364c-18.096,18.096-91.344,74.108-91.344,74.108c0-25.852,22.406-115.471,13.788-144.769
				c-8.616-29.298-18.958-43.085-62.043-43.085c-43.087,0-86.172,49.979-110.301,101.683
				c-16.816,36.036-39.494,90.49-51.693,120.184c-5.466,13.309-16.943,23.208-30.905,26.681l-523.955,130.362
				c141.099-88.942,266.712-201.548,446.215-219.204C2832.469,2847.627,2849.34,2797.017,2862.836,2763.276z"/>
			
				<linearGradient id="SVGID_00000082348393073347129420000015064169759548515989_" gradientUnits="userSpaceOnUse" x1="2736.0952" y1="3093.0923" x2="1677.2207" y2="2215.5452" gradientTransform="matrix(-1 0 0 1 4041.4624 0)">
				<stop  offset="0" style="stop-color:#FF9085"/>
				<stop  offset="1" style="stop-color:#FB6FBB"/>
			</linearGradient>
			<path style="fill:url(#SVGID_00000082348393073347129420000015064169759548515989_);" d="M1232.039,2753.34v203.261
				c0,28.586,16.711,54.54,42.751,66.333c85.267,38.616,275.838,121.442,363.979,131.967c50.427,6.032,113.678,9.41,168.897,11.34
				c-19.853-69.385,15.856-152.386,38.501-189.44c221.738-363.059,588.829-602.548,588.829-602.548s215.015-157.729,374.571-137.358
				c23.68,3.033,45.569,6.618,65.871,10.686c-131.707-61.286-308.633-115.402-493.869-119.848
				c-164.14-3.929-237.801,18.406-351.581,56.873c-72.556,24.542-149.044,69.455-255.069,127.534
				c-84.277,46.154-173.343,118.193-287.814,174.067c0,0-193.025,103.406-224.047,163.727S1232.039,2753.34,1232.039,2753.34z"/>
			
				<linearGradient id="SVGID_00000099651477575219904470000016175693436616712636_" gradientUnits="userSpaceOnUse" x1="1192.0801" y1="2643.7395" x2="1202.2986" y2="2383.1646" gradientTransform="matrix(-1 0 0 1 4041.4624 0)">
				<stop  offset="0" style="stop-color:#444B8C"/>
				<stop  offset="0.9964" style="stop-color:#3E4177"/>
			</linearGradient>
			<path style="fill:url(#SVGID_00000099651477575219904470000016175693436616712636_);" d="M2656.976,2427.887l-2.619,145.458
				c87.274-29.092,209.569-68.248,252.862-79.106c59.735-14.925,150.525-56.288,150.525-56.288
				c-41.5-36.089-79.657-58.769-105.715-72.384c-109.714-57.391-246.313-80.726-331.933-49.635
				C2644.705,2347.885,2657.7,2386.972,2656.976,2427.887z"/>
			
				<linearGradient id="SVGID_00000006672063387168795210000015519203295162802874_" gradientUnits="userSpaceOnUse" x1="1672.4708" y1="2702.7261" x2="1560.5511" y2="2438.189" gradientTransform="matrix(-1 0 0 1 4041.4624 0)">
				<stop  offset="0" style="stop-color:#444B8C"/>
				<stop  offset="0.9964" style="stop-color:#3E4177"/>
			</linearGradient>
			<path style="fill:url(#SVGID_00000006672063387168795210000015519203295162802874_);" d="M2182.238,2711.392
				c0,0,333.175-89.619,394.081-111.438c11.857-4.24,29.332-10.271,50.289-17.338l2.792-155.247
				c0.655-37.019-11.96-72.281-35.676-100.269c-13.167,6.032-31.4,14.787-51.875,25.817c-9.41,5.101-36.778,19.647-68.628,41.397
				c-38.604,26.334-70.454,54.357-124.397,99.925c-81.587,68.937-183.822,194.197-183.822,202.228
				S2159.248,2711.392,2182.238,2711.392z"/>
			
				<linearGradient id="SVGID_00000003785617502665232680000005760777268087093902_" gradientUnits="userSpaceOnUse" x1="1180.457" y1="2631.9834" x2="1189.1959" y2="2409.1387" gradientTransform="matrix(-1 0 0 1 4041.4624 0)">
				<stop  offset="0" style="stop-color:#444B8C"/>
				<stop  offset="0.9964" style="stop-color:#3E4177"/>
			</linearGradient>
			<path style="opacity:0.3;fill:url(#SVGID_00000003785617502665232680000005760777268087093902_);" d="M2880.092,2334.138
				c24.682,8.858,48.904,19.382,71.937,31.429c26.059,13.615,64.215,36.296,105.715,72.384c0,0-90.79,41.363-150.525,56.288
				c-43.293,10.857-165.588,50.014-252.862,79.106l1.964-109.086c60.115-16.788,119.435-38.26,173.845-78.678
				C2850.136,2371.316,2867.199,2353.631,2880.092,2334.138z"/>
			
				<linearGradient id="SVGID_00000167377575541980860260000015484850282088354474_" gradientUnits="userSpaceOnUse" x1="1607.0459" y1="2686.6846" x2="1536.3986" y2="2519.6997" gradientTransform="matrix(-1 0 0 1 4041.4624 0)">
				<stop  offset="0" style="stop-color:#444B8C"/>
				<stop  offset="0.9964" style="stop-color:#3E4177"/>
			</linearGradient>
			<path style="opacity:0.3;fill:url(#SVGID_00000167377575541980860260000015484850282088354474_);" d="M2440.67,2530.349
				c59.534-28.113,123.828-41.954,187.934-58.634l-1.994,110.902c-20.957,7.066-38.432,13.098-50.289,17.338
				c-38.431,13.767-185.243,54.522-288.376,82.731C2323.143,2614.823,2377.522,2560.55,2440.67,2530.349z"/>
			
				<linearGradient id="SVGID_00000023277131938145721430000018203797135823616168_" gradientUnits="userSpaceOnUse" x1="1666.5594" y1="2795.4861" x2="1682.9321" y2="2662.7815" gradientTransform="matrix(-1 0 0 1 4041.4624 0)">
				<stop  offset="0" style="stop-color:#FF9085"/>
				<stop  offset="1" style="stop-color:#FB6FBB"/>
			</linearGradient>
			<path style="fill:url(#SVGID_00000023277131938145721430000018203797135823616168_);" d="M2282.646,2725.903
				c6.584,4.86,17.579,0.31,20.51-1l39.053-39.053l84.379-5.687c4.102-0.276,7.927-1.792,10.995-4.205
				c3.102-2.447,5.48-5.756,6.756-9.686c2.276-7.135,0.448-14.891-4.792-20.233c-15.131-15.442-48.463-45.223-80.381-45.223
				c-43.086,0-52.565,47.188-52.565,47.188c-0.069,0.31-0.138,0.62-0.207,0.931c-0.164,0.823-0.293,1.643-0.39,2.459
				c-1.143,9.632-4.845,18.932-12.016,25.463c-3.47,3.161-6.75,7.059-9.377,11.854
				C2278.682,2699.5,2273.616,2719.25,2282.646,2725.903z"/>
			
				<linearGradient id="SVGID_00000038372383498862302960000009192110974377222032_" gradientUnits="userSpaceOnUse" x1="2371.9568" y1="2615.7217" x2="2003.9595" y2="2444.6804" gradientTransform="matrix(-1 0 0 1 4041.4624 0)">
				<stop  offset="0" style="stop-color:#444B8C"/>
				<stop  offset="0.9964" style="stop-color:#3E4177"/>
			</linearGradient>
			<path style="fill:url(#SVGID_00000038372383498862302960000009192110974377222032_);" d="M1889.648,2264.521
				c-121.159,73.512-242.316,147.025-363.475,220.538c0,0,228.814,122.822,559.714,186.014
				c40.098-40.159,83.557-81.433,130.522-123.213c47.444-42.208,93.962-80.925,138.947-116.373
				c-67.045-36.374-148.307-74.362-243.13-107.198C2031.235,2296.243,1956.01,2277.378,1889.648,2264.521z"/>
			
				<linearGradient id="SVGID_00000072265487740076031380000010912508472006134199_" gradientUnits="userSpaceOnUse" x1="2427.4956" y1="2554.1516" x2="2179.4392" y2="2438.8577" gradientTransform="matrix(-1 0 0 1 4041.4624 0)">
				<stop  offset="0" style="stop-color:#444B8C"/>
				<stop  offset="0.9964" style="stop-color:#3E4177"/>
			</linearGradient>
			<path style="opacity:0.3;fill:url(#SVGID_00000072265487740076031380000010912508472006134199_);" d="M1889.649,2264.521
				c38.294,7.419,79.557,16.856,123.16,28.886c-96.489,86.878-179.259,192.408-171.531,316.588
				c-193.74-59.807-315.104-124.937-315.104-124.937C1647.332,2411.546,1768.49,2338.034,1889.649,2264.521z"/>
			<path style="fill:#FFFFFF;" d="M2002.415,2790.394c-24.712-12.74-104.172-49.61-194.748-23.266
				c-46.797,13.611-135.566,55.439-142.183,119.779c-0.65,6.321-0.387,11.688,0,15.511c0,0,196.472,20.681,235.249,6.894
				C1939.51,2895.524,2002.415,2803.32,2002.415,2790.394z"/>
			<path style="fill:#FFFFFF;" d="M1284.892,2770.974c9.245-13.487,26.851-43.084,30.734-84.848
				c3.457-37.19-5.599-66.469-11.424-81.479c-9.297,7.576-22.554,15.929-33.154,30.014c-3.351,4.453-12.998,14.542-17.242,31.317
				c-5.067,20.026-4.058,47.957,2.31,64.956C1264.066,2752.162,1277.766,2765.11,1284.892,2770.974z"/>
			
				<linearGradient id="SVGID_00000054260648935903859930000017380904939172041375_" gradientUnits="userSpaceOnUse" x1="2638.6584" y1="3120.4971" x2="2608.7786" y2="2936.4995" gradientTransform="matrix(-1 0 0 1 4041.4624 0)">
				<stop  offset="0" style="stop-color:#FF9085"/>
				<stop  offset="1" style="stop-color:#FB6FBB"/>
			</linearGradient>
			<polygon style="opacity:0.3;fill:url(#SVGID_00000054260648935903859930000017380904939172041375_);" points="1294.083,2866.708 
				1294.083,2900.866 1571.556,3004.617 1571.556,2970.493 			"/>
			
				<linearGradient id="SVGID_00000026134547855468731520000002073214437555903628_" gradientUnits="userSpaceOnUse" x1="2638.3352" y1="3174.2253" x2="2608.7771" y2="2992.209" gradientTransform="matrix(-1 0 0 1 4041.4624 0)">
				<stop  offset="0" style="stop-color:#FF9085"/>
				<stop  offset="1" style="stop-color:#FB6FBB"/>
			</linearGradient>
			<polygon style="opacity:0.3;fill:url(#SVGID_00000026134547855468731520000002073214437555903628_);" points="1294.083,2922.927 
				1294.083,2956.085 1571.556,3059.836 1571.556,3026.712 			"/>
			<g>
				
					<linearGradient id="SVGID_00000137124767116885001590000016666797686704163490_" gradientUnits="userSpaceOnUse" x1="1354.5168" y1="2792.96" x2="1642.9059" y2="2714.2559" gradientTransform="matrix(-1 0 0 1 4041.4624 0)">
					<stop  offset="0" style="stop-color:#FF9085"/>
					<stop  offset="1" style="stop-color:#FB6FBB"/>
				</linearGradient>
				<path style="fill:url(#SVGID_00000137124767116885001590000016666797686704163490_);" d="M2623.721,2960.154
					c2.594,0,4.829-1.947,5.13-4.585l25.597-224.471c2.161-16.656,3.326-33.68,3.455-50.521c0.195-25.342-1.942-50.884-6.35-75.915
					l-0.298-2.707c-0.322-2.837-2.871-4.872-5.721-4.552c-2.838,0.323-4.876,2.885-4.553,5.722l0.344,3.018
					c4.344,24.728,6.427,49.64,6.237,74.355c-0.126,16.423-1.262,33.027-3.38,49.349l-25.606,224.55
					c-0.323,2.837,1.713,5.399,4.551,5.722C2623.327,2960.142,2623.526,2960.154,2623.721,2960.154z"/>
			</g>
		</g>
		<g>
			
				<linearGradient id="SVGID_00000141414749752680403040000012189223758649324200_" gradientUnits="userSpaceOnUse" x1="2022.9175" y1="3454.3516" x2="1301.5267" y2="3250.2131" gradientTransform="matrix(0.978 0.2086 -0.2086 0.978 191.0363 -600.0184)">
				<stop  offset="0" style="stop-color:#444B8C"/>
				<stop  offset="0.9964" style="stop-color:#3E4177"/>
			</linearGradient>
			<path style="fill:url(#SVGID_00000141414749752680403040000012189223758649324200_);" d="M914.382,3033.167
				c20.148,16.291,50.78,11.813,68.421-10.003c17.64-21.816,15.607-52.708-4.541-68.999c-1.044-0.844-2.132-1.598-3.228-2.332
				c7.086-12.642,13.161-25.61,18.194-38.806c1.296,0.273,2.6,0.528,3.946,0.692c26.268,3.2,51.78-16.123,56.983-43.162
				c5.203-27.039-11.874-51.553-38.142-54.754c-1.374-0.167-2.742-0.237-4.108-0.283c0.153-13.917-0.756-27.737-2.72-41.344
				c1.334-0.441,2.666-0.906,3.991-1.468c25.35-10.747,38.906-39.739,30.278-64.756c-8.628-25.017-36.174-36.583-61.524-25.837
				c-1.299,0.551-2.545,1.179-3.781,1.823c-6.657-11.488-14.307-22.45-22.907-32.799c0.981-1.037,1.95-2.092,2.863-3.222
				c17.64-21.816,39.572-45.078,19.172-61.051c-47.192-36.952-74.492-19.76-92.133,2.056c-0.913,1.13-1.743,2.299-2.551,3.475
				c-11.92-6.243-24.24-11.429-36.867-15.534c0.371-1.343,0.724-2.692,0.992-4.078c5.202-27.038,16.299-39.904-9.47-45.926
				c-56.192-13.133-80.454,7.298-85.656,34.335c-0.272,1.413-0.448,2.814-0.6,4.21c-13.717,0.928-27.421,2.931-40.998,5.995
				c-0.331-1.326-0.686-2.65-1.137-3.958c-8.628-25.016-36.174-36.583-61.525-25.835c-25.351,10.748-38.906,39.739-30.278,64.756
				c0.442,1.282,0.965,2.503,1.503,3.714c-11.85,7.685-23.259,16.34-34.138,25.915c-0.947-0.919-1.913-1.825-2.956-2.669
				c-20.148-16.291-50.78-11.813-68.42,10.003c-17.64,21.815-15.607,52.708,4.541,68.999c1.044,0.844,2.133,1.599,3.229,2.332
				c-7.086,12.642-13.161,25.61-18.195,38.806c-1.296-0.272-2.6-0.528-3.945-0.693c-26.269-3.199-51.781,16.124-56.984,43.163
				c-5.203,27.039,11.875,51.552,38.143,54.752c1.372,0.167,2.741,0.238,4.107,0.284c-0.154,13.917,0.755,27.737,2.72,41.345
				c-1.334,0.441-2.667,0.906-3.991,1.468c-25.35,10.747-38.906,39.74-30.278,64.756c8.628,25.016,50.65,44.747,76,34
				c1.299-0.551-11.933-9.343-10.697-9.986c6.657,11.488,14.308,22.45,22.907,32.799c-0.98,1.036-1.95,2.092-2.864,3.222
				c-17.64,21.815-15.607,52.707,4.541,68.999c20.148,16.291,50.781,11.812,68.42-10.003c0.914-1.13,1.743-2.299,2.551-3.475
				c11.92,6.243,24.24,11.429,36.867,15.534c-0.37,1.343-0.724,2.692-0.991,4.078c-5.203,27.038,11.874,51.552,38.142,54.753
				c26.268,3.2,51.781-16.124,56.983-43.162c0.272-1.413,0.448-2.814,0.6-4.21c13.717-0.927,27.422-2.931,40.998-5.994
				c0.331,1.326,0.687,2.65,1.137,3.957c8.628,25.016,36.173,36.584,61.524,25.836s38.906-39.739,30.279-64.757
				c-0.442-1.281-0.965-2.502-1.503-3.712c11.85-7.685,23.259-16.34,34.138-25.915
				C912.373,3031.417,913.338,3032.323,914.382,3033.167z M631.958,2976.662c-73.152-59.149-80.532-171.31-16.485-250.517
				c64.047-79.209,175.268-95.469,248.419-36.32c73.152,59.15,80.532,171.31,16.486,250.518
				C816.33,3019.552,705.109,3035.812,631.958,2976.662z"/>
			
				<linearGradient id="SVGID_00000117643206983521402730000003665281433971778976_" gradientUnits="userSpaceOnUse" x1="2021.0291" y1="3461.0339" x2="1299.6321" y2="3256.8938" gradientTransform="matrix(0.978 0.2086 -0.2086 0.978 191.0363 -600.0184)">
				<stop  offset="0" style="stop-color:#444B8C"/>
				<stop  offset="0.9964" style="stop-color:#3E4177"/>
			</linearGradient>
			<path style="fill:url(#SVGID_00000117643206983521402730000003665281433971778976_);" d="M997.174,2913.72
				c26.268,3.199,51.78-16.124,56.984-43.163c5.203-27.039-11.874-51.553-38.142-54.753c-1.373-0.167-2.742-0.237-4.108-0.284
				c0.154-13.917-0.756-27.737-2.72-41.344c1.334-0.44,2.666-0.906,3.991-1.469c25.35-10.747,60.599-42.261,49.45-66.26
				c-21.16-45.549-55.346-35.078-80.696-24.332c-1.299,0.551-2.545,1.179-3.78,1.823c-6.658-11.488-14.308-22.449-22.908-32.799
				c0.981-1.037,1.949-2.091,2.863-3.221c9.601-11.873,13.329-26.426,11.526-39.859c-29.299,32.949-58.345,66.117-87.058,99.57
				c55.216,61.917,55.893,160.868-2.2,232.715c-49.229,60.883-126.315,84.523-192.575,65.367
				c-4.662,7.144-9.278,14.341-14.136,21.364c-13.184,19.06-27.462,37.435-41.748,55.781c5.989,2.507,12.058,4.77,18.202,6.768
				c-0.371,1.344-0.724,2.693-0.991,4.079c-5.203,27.038,6.264,53.4,53.512,60.887c26.137,4.142,36.411-22.258,41.614-49.296
				c0.272-1.413,0.448-2.813,0.6-4.21c13.717-0.927,27.421-2.931,40.998-5.995c0.331,1.327,0.687,2.65,1.138,3.957
				c8.628,25.018,52.954,44.319,78.305,33.571c25.351-10.748,22.125-47.473,13.497-72.49c-0.442-1.282-0.965-2.503-1.503-3.714
				c11.85-7.685,23.259-16.34,34.137-25.914c0.947,0.919,1.912,1.826,2.956,2.668c20.147,16.292,50.78,11.813,68.421-10.003
				c17.639-21.815,15.607-52.708-4.541-68.998c-1.044-0.844-2.132-1.598-3.229-2.332c7.086-12.642,13.161-25.611,18.194-38.806
				C994.524,2913.3,995.828,2913.555,997.174,2913.72z"/>
			
				<linearGradient id="SVGID_00000172422652207521103720000003189920230093235625_" gradientUnits="userSpaceOnUse" x1="768.6505" y1="2600.0632" x2="779.7115" y2="3493.251">
				<stop  offset="0" style="stop-color:#AA80F9"/>
				<stop  offset="0.9964" style="stop-color:#6165D7"/>
			</linearGradient>
			<path style="fill:url(#SVGID_00000172422652207521103720000003189920230093235625_);" d="M1039.728,2823.75
				c-1.374-0.166-2.742-0.237-4.109-0.283c0.154-13.917-0.756-27.738-2.72-41.344c1.334-0.441,2.667-0.907,3.993-1.469
				c25.349-10.746,38.906-39.738,30.277-64.756c-8.627-25.016-36.173-36.583-61.524-25.836c-1.299,0.552-2.544,1.179-3.78,1.823
				c-6.657-11.488-14.307-22.448-22.906-32.799c0.98-1.037,1.95-2.093,2.863-3.222c17.64-21.815,15.607-52.707-4.541-68.998
				c-20.147-16.291-50.781-11.813-68.42,10.003c-0.915,1.13-1.744,2.299-2.552,3.475c-11.92-6.243-24.241-11.429-36.867-15.534
				c0.371-1.344,0.724-2.692,0.991-4.078c5.201-27.038-11.875-51.552-38.143-54.753c-26.269-3.201-51.782,16.125-56.984,43.161
				c-0.271,1.414-0.447,2.814-0.599,4.211c-13.717,0.928-27.421,2.931-40.998,5.995c-0.331-1.327-0.686-2.65-1.137-3.958
				c-8.629-25.016-36.173-36.583-61.524-25.835c-25.352,10.748-38.907,39.74-30.278,64.756c0.442,1.281,0.965,2.504,1.503,3.714
				c-11.851,7.685-23.26,16.339-34.139,25.915c-0.946-0.919-1.911-1.826-2.956-2.67c-20.147-16.292-50.779-11.813-68.42,10.003
				c-17.64,21.816-15.607,52.708,4.541,68.998c1.043,0.845,2.132,1.6,3.228,2.332c-7.085,12.643-13.161,25.611-18.195,38.807
				c-1.295-0.272-2.601-0.529-3.945-0.693c-26.269-3.199-51.781,16.124-56.984,43.163c-5.204,27.039,11.875,51.552,38.142,54.752
				c1.372,0.168,2.741,0.238,4.107,0.284c-0.154,13.918,0.756,27.738,2.719,41.345c-1.333,0.441-2.666,0.906-3.99,1.468
				c-25.351,10.747-38.907,39.74-30.278,64.756c8.628,25.016,36.173,36.583,61.522,25.836c1.3-0.552,2.546-1.179,3.781-1.823
				c6.658,11.488,14.307,22.45,22.906,32.798c-0.979,1.038-1.95,2.093-2.863,3.222c-17.639,21.816-15.607,52.707,4.541,68.999
				c20.147,16.291,50.781,11.813,68.42-10.003c0.914-1.129,1.743-2.298,2.552-3.474c11.92,6.243,24.241,11.428,36.868,15.533
				c-0.371,1.344-0.725,2.692-0.991,4.079c-5.203,27.037,11.874,51.552,38.143,54.752c26.267,3.2,51.78-16.124,56.983-43.162
				c0.272-1.413,0.448-2.814,0.599-4.211c13.717-0.927,27.422-2.93,40.998-5.994c0.331,1.325,0.686,2.649,1.138,3.956
				c8.628,25.016,36.172,36.585,61.522,25.837c25.352-10.747,38.907-39.738,30.28-64.757c-0.442-1.28-0.966-2.502-1.504-3.713
				c11.851-7.683,23.259-16.339,34.139-25.913c0.946,0.918,1.912,1.825,2.956,2.669c20.147,16.291,50.781,11.813,68.42-10.003
				c17.64-21.816,15.607-52.707-4.541-68.999c-1.044-0.844-2.132-1.598-3.228-2.332c7.085-12.642,13.161-25.611,18.195-38.807
				c1.297,0.274,2.6,0.529,3.946,0.692c26.269,3.2,51.779-16.123,56.983-43.162
				C1083.073,2851.465,1065.995,2826.951,1039.728,2823.75z M904.088,2948.29c-64.046,79.208-175.268,95.469-248.418,36.32
				c-73.151-59.15-80.533-171.31-16.485-250.518c64.048-79.208,175.268-95.469,248.419-36.319
				C960.755,2756.922,968.136,2869.082,904.088,2948.29z"/>
		</g>
	</g>
</g>
</svg>
