<?xml version="1.0" encoding="utf-8"?>
<!-- Generator: Adobe Illustrator 27.5.0, SVG Export Plug-In . SVG Version: 6.00 Build 0)  -->
<svg version="1.1" xmlns="http://www.w3.org/2000/svg" xmlns:xlink="http://www.w3.org/1999/xlink" x="0px" y="0px"
	 viewBox="0 0 750 500" style="enable-background:new 0 0 750 500;" xml:space="preserve">
<g id="BACKGROUND">
	<rect style="fill:#FE5D89;" width="750" height="500"/>
</g>
<g id="OBJECTS">
	<g>
		<g>
			<g>
				<g>
					<rect x="82.063" y="82.893" style="fill:#EA4477;" width="597" height="344"/>
				</g>
			</g>
		</g>
		<g>
			<rect x="76.36" y="78" style="fill:#DEEEFF;" width="597" height="344"/>
		</g>
		<g>
			<rect x="183.027" y="77.992" style="fill:#FFFFFF;" width="490.333" height="43.063"/>
			<g>
				<g>
					<g>
						<g>
							<path style="fill:#17133A;" d="M252.119,106.248l-0.743-1.395v-3.445c0-2.13-1.43-3.931-3.381-4.495v-1.72
								c0-0.716-0.582-1.298-1.298-1.298c-0.716,0-1.298,0.583-1.298,1.298v1.72c-1.95,0.564-3.38,2.366-3.38,4.495v3.445
								l-0.743,1.395c-0.143,0.269-0.135,0.585,0.022,0.846c0.157,0.261,0.432,0.417,0.736,0.417h2.951
								c0.05,0.902,0.799,1.62,1.714,1.62c0.914,0,1.663-0.718,1.714-1.62h2.951c0.304,0,0.579-0.156,0.736-0.417
								C252.254,106.833,252.262,106.517,252.119,106.248z M246.085,95.193c0-0.337,0.274-0.611,0.611-0.611
								c0.337,0,0.611,0.274,0.611,0.611v1.576c-0.2-0.026-0.404-0.04-0.611-0.04c-0.207,0-0.411,0.014-0.611,0.04V95.193
								L246.085,95.193z M242.705,101.408c0-2.201,1.791-3.992,3.992-3.992c2.201,0,3.992,1.791,3.992,3.992v3.161h-7.984V101.408z
								 M246.697,108.444c-0.535,0-0.976-0.41-1.025-0.933h2.049C247.672,108.033,247.232,108.444,246.697,108.444z M251.508,106.74
								c-0.015,0.025-0.059,0.083-0.147,0.083h-9.328c-0.088,0-0.132-0.058-0.147-0.083c-0.015-0.025-0.046-0.092-0.004-0.169
								l0.701-1.315h8.23l0.701,1.315C251.554,106.649,251.523,106.715,251.508,106.74z"/>
						</g>
					</g>
				</g>
				<path style="fill:#FE5D89;" d="M245.236,102.776c0,1.692-1.372,3.064-3.064,3.064c-1.692,0-3.064-1.372-3.064-3.064
					c0-1.692,1.372-3.064,3.064-3.064C243.865,99.712,245.236,101.084,245.236,102.776z"/>
			</g>
			<g>
				<path style="fill:none;stroke:#C2C0DD;stroke-miterlimit:10;" d="M638.027,109.865H516.693c-4.05,0-7.333-3.283-7.333-7.333l0,0
					c0-4.05,3.283-7.333,7.333-7.333h121.333c4.05,0,7.333,3.283,7.333,7.333l0,0C645.36,106.582,642.077,109.865,638.027,109.865z"
					/>
				<path style="fill:#17133A;" d="M638.279,105.896l-1.949-2.027c0.501-0.596,0.776-1.345,0.776-2.126
					c0-1.823-1.483-3.306-3.306-3.306c-1.823,0-3.306,1.483-3.306,3.306c0,1.823,1.483,3.306,3.306,3.306
					c0.684,0,1.337-0.206,1.894-0.598l1.964,2.043c0.082,0.085,0.193,0.132,0.311,0.132c0.112,0,0.218-0.043,0.299-0.12
					C638.438,106.341,638.444,106.068,638.279,105.896z M633.799,99.3c1.348,0,2.444,1.096,2.444,2.444
					c0,1.348-1.096,2.444-2.444,2.444s-2.444-1.096-2.444-2.444C631.355,100.396,632.451,99.3,633.799,99.3z"/>
			</g>
			<g>
				<circle style="fill:#310F72;" cx="214.464" cy="100.978" r="10.437"/>
				<g>
					<g>
						<g>
							<circle style="fill:#FFFFFF;" cx="214.464" cy="98.454" r="2.768"/>
						</g>
						<g>
							<g>
								<path style="fill:#FFFFFF;" d="M219.808,106.27c-0.203,0-0.407-0.072-0.57-0.22c-1.311-1.185-3.006-1.837-4.774-1.837
									c-1.768,0-3.463,0.652-4.774,1.837c-0.349,0.315-0.886,0.288-1.201-0.06c-0.315-0.349-0.288-0.886,0.06-1.201
									c1.624-1.468,3.724-2.276,5.914-2.276c2.19,0,4.291,0.808,5.915,2.276c0.348,0.315,0.375,0.853,0.06,1.201
									C220.271,106.176,220.04,106.27,219.808,106.27z"/>
							</g>
						</g>
					</g>
				</g>
			</g>
		</g>
		<g>
			<rect x="204.027" y="218.555" style="fill:#FFFFFF;" width="294.232" height="100.334"/>
			<g>
				<g style="opacity:0.5;">
					<g>
						<polyline style="fill:none;stroke:#919191;stroke-width:0.25;stroke-miterlimit:10;" points="452.635,235.563 
							452.635,302.563 243.393,302.563 243.393,235.563 						"/>
						
							<line style="fill:none;stroke:#919191;stroke-width:0.25;stroke-miterlimit:10;" x1="243.393" y1="291.397" x2="452.635" y2="291.397"/>
						
							<line style="fill:none;stroke:#919191;stroke-width:0.25;stroke-miterlimit:10;" x1="243.393" y1="280.23" x2="452.635" y2="280.23"/>
						
							<line style="fill:none;stroke:#919191;stroke-width:0.25;stroke-miterlimit:10;" x1="243.393" y1="269.063" x2="452.635" y2="269.063"/>
						
							<line style="fill:none;stroke:#919191;stroke-width:0.25;stroke-miterlimit:10;" x1="243.393" y1="257.897" x2="452.635" y2="257.897"/>
						
							<line style="fill:none;stroke:#919191;stroke-width:0.25;stroke-miterlimit:10;" x1="243.393" y1="246.73" x2="452.635" y2="246.73"/>
						
							<line style="fill:none;stroke:#919191;stroke-width:0.25;stroke-miterlimit:10;" x1="422.743" y1="235.563" x2="422.743" y2="302.563"/>
						
							<line style="fill:none;stroke:#919191;stroke-width:0.25;stroke-miterlimit:10;" x1="392.851" y1="235.563" x2="392.851" y2="302.563"/>
						
							<line style="fill:none;stroke:#919191;stroke-width:0.25;stroke-miterlimit:10;" x1="362.96" y1="235.563" x2="362.96" y2="302.563"/>
						
							<line style="fill:none;stroke:#919191;stroke-width:0.25;stroke-miterlimit:10;" x1="333.068" y1="235.563" x2="333.068" y2="302.563"/>
						
							<line style="fill:none;stroke:#919191;stroke-width:0.25;stroke-miterlimit:10;" x1="303.176" y1="235.563" x2="303.176" y2="302.563"/>
						
							<line style="fill:none;stroke:#919191;stroke-width:0.25;stroke-miterlimit:10;" x1="273.284" y1="235.563" x2="273.284" y2="302.563"/>
					</g>
				</g>
				<g>
					
						<rect x="238.666" y="270.388" transform="matrix(6.123234e-17 -1 1 6.123234e-17 -15.3948 541.2291)" style="fill:#10E5BC;" width="48.502" height="15.847"/>
				</g>
				<g>
					
						<rect x="276.354" y="281.343" transform="matrix(6.123234e-17 -1 1 6.123234e-17 0.3829 578.9167)" style="fill:#10E5BC;" width="26.592" height="15.847"/>
				</g>
				<g>
					
						<rect x="296.214" y="274.471" transform="matrix(6.123234e-17 -1 1 6.123234e-17 33.9878 598.7772)" style="fill:#10E5BC;" width="40.337" height="15.847"/>
				</g>
				<g>
					
						<rect x="312.667" y="264.191" transform="matrix(6.123234e-17 -1 1 6.123234e-17 71.0005 615.2299)" style="fill:#10E5BC;" width="60.897" height="15.847"/>
				</g>
				<g>
					
						<rect x="344.878" y="269.67" transform="matrix(6.123234e-17 -1 1 6.123234e-17 92.2541 647.4415)" style="fill:#10E5BC;" width="49.939" height="15.847"/>
				</g>
				<g>
					
						<rect x="381.356" y="279.415" transform="matrix(6.123234e-17 -1 1 6.123234e-17 109.2417 683.9194)" style="fill:#10E5BC;" width="30.448" height="15.847"/>
				</g>
				<g>
					
						<rect x="398.344" y="269.67" transform="matrix(6.123234e-17 -1 1 6.123234e-17 145.7195 700.9069)" style="fill:#10E5BC;" width="49.939" height="15.847"/>
				</g>
				<g>
					<line style="fill:none;stroke:#919191;stroke-miterlimit:10;" x1="243.393" y1="235.563" x2="243.393" y2="302.563"/>
					<line style="fill:none;stroke:#919191;stroke-miterlimit:10;" x1="243.393" y1="302.563" x2="471.135" y2="302.563"/>
				</g>
				<g>
					<g>
						<g>
							
								<text transform="matrix(1 0 0 1 257.1475 310.7591)" style="fill:#0C0330; font-family:'Montserrat-Regular'; font-size:5.1014px; letter-spacing:1;">Jan      Feb     Mar      Apr     May     Jun     Jul</text>
						</g>
						<g>
							
								<text transform="matrix(1 0 0 1 254.9937 233.4825)" style="fill:#0C0330; font-family:'Montserrat-Black'; font-size:8px; letter-spacing:1;">2019</text>
						</g>
					</g>
				</g>
			</g>
		</g>
		<rect x="76.36" y="77.992" style="fill:#310F72;" width="106.785" height="344"/>
		<g>
			<rect x="76.36" y="179.609" style="fill:#0C0330;" width="97.148" height="22.473"/>
			<g>
				<g>
					
						<text transform="matrix(1 0 0 1 114.1158 194.16)" style="fill:#FFFFFF; font-family:'Montserrat-Bold'; font-size:7.2959px; letter-spacing:1;">Dashboard</text>
				</g>
			</g>
		</g>
		<g>
			<g>
				
					<text transform="matrix(1 0 0 1 114.1158 223.574)" style="fill:#FFFFFF; font-family:'Montserrat-Bold'; font-size:7.2959px; letter-spacing:1;">Favorite</text>
			</g>
			<path style="fill:#FFFFFF;" d="M101.824,216.458c-0.678,0-1.312,0.287-1.735,0.769c-0.423-0.481-1.057-0.769-1.735-0.769
				c-1.239,0-2.246,0.944-2.246,2.103c0,0.908,0.578,1.959,1.719,3.122c0.878,0.895,1.833,1.589,2.104,1.78l0.158,0.111l0.158-0.111
				c0.272-0.191,1.227-0.885,2.104-1.78c1.141-1.164,1.719-2.214,1.719-3.122C104.07,217.401,103.063,216.458,101.824,216.458z"/>
		</g>
		<g>
			<g>
				
					<text transform="matrix(1 0 0 1 114.1158 250.3338)" style="fill:#FFFFFF; font-family:'Montserrat-Bold'; font-size:7.2959px; letter-spacing:1;">Folder</text>
			</g>
			<path style="fill:#FFFFFF;" d="M101.099,244.629l-1.01-1.382h-2.878c-0.749,0-1.362,0.613-1.362,1.362v4.555
				c0,0.749,0.613,1.362,1.362,1.362h5.755c0.749,0,1.362-0.613,1.362-1.362v-3.69c0-0.467-0.379-0.846-0.846-0.846H101.099z"/>
		</g>
		<g>
			<g>
				
					<text transform="matrix(1 0 0 1 113.0259 279.5145)" style="fill:#FFFFFF; font-family:'Montserrat-Bold'; font-size:7.2959px; letter-spacing:1;">Settings</text>
			</g>
			<path style="fill:#FFFFFF;" d="M98.762,273.114c-0.253,0.113-0.479,0.244-0.68,0.392c-0.985-0.445-1.586-0.667-1.804-0.667
				c-0.035,0-0.065,0.017-0.092,0.052c-0.61,1.046-0.915,1.586-0.915,1.621l0.026,0.078c0.358,0.357,0.845,0.758,1.464,1.203
				c-0.017,0.174-0.026,0.305-0.026,0.392c0,0.087,0.009,0.218,0.026,0.392c-0.183,0.121-0.477,0.348-0.882,0.68
				c-0.405,0.331-0.608,0.532-0.608,0.601c0,0.017,0.07,0.148,0.209,0.392c0.14,0.244,0.288,0.501,0.445,0.771
				c0.157,0.27,0.244,0.423,0.261,0.458c0.026,0.035,0.057,0.052,0.092,0.052c0.218,0,0.819-0.222,1.804-0.667
				c0.201,0.148,0.427,0.279,0.68,0.392c0.131,1.299,0.266,1.948,0.405,1.948h1.83c0.139,0,0.275-0.649,0.405-1.948
				c0.235-0.104,0.462-0.235,0.68-0.392c0.985,0.445,1.586,0.667,1.804,0.667c0.035,0,0.065-0.017,0.091-0.052
				c0.619-1.063,0.928-1.604,0.928-1.621c0-0.07-0.205-0.27-0.614-0.601c-0.41-0.331-0.706-0.558-0.889-0.68
				c0.017-0.174,0.026-0.305,0.026-0.392c0-0.087-0.009-0.218-0.026-0.392c0.183-0.122,0.479-0.349,0.889-0.68
				s0.614-0.531,0.614-0.601c0-0.017-0.309-0.558-0.928-1.621c-0.026-0.035-0.057-0.052-0.091-0.052
				c-0.218,0-0.819,0.222-1.804,0.667c-0.218-0.157-0.445-0.288-0.68-0.392c-0.131-1.299-0.266-1.948-0.405-1.948h-1.83
				C99.028,271.166,98.893,271.815,98.762,273.114z M101.266,275.003c0.327,0.326,0.49,0.721,0.49,1.183
				c0,0.462-0.163,0.857-0.49,1.183c-0.327,0.327-0.721,0.491-1.183,0.491c-0.453,0-0.845-0.166-1.177-0.497
				c-0.331-0.331-0.497-0.723-0.497-1.176s0.166-0.845,0.497-1.177c0.331-0.331,0.724-0.497,1.177-0.497
				C100.544,274.513,100.939,274.676,101.266,275.003z"/>
		</g>
		<g>
			<text transform="matrix(1 0 0 1 92.5204 107.0712)" style="fill:#FFFFFF; font-family:'Montserrat-Bold'; font-size:9.0904px;">DASHBOARD</text>
		</g>
		<rect x="503.209" y="218.555" style="fill:#FFFFFF;" width="142.151" height="187.834"/>
		<g>
			<rect x="520.86" y="367.555" style="fill:none;" width="109.5" height="29"/>
			<text transform="matrix(1 0 0 1 534.6803 371.265)"><tspan x="0" y="0" style="fill:#0C0330; font-family:'Montserrat-Regular'; font-size:5px;">Lorem ipsum dolor sit amet, </tspan><tspan x="-6.188" y="6" style="fill:#0C0330; font-family:'Montserrat-Regular'; font-size:5px;">consectetuer adipiscing elit, sed </tspan><tspan x="10.65" y="12" style="fill:#0C0330; font-family:'Montserrat-Regular'; font-size:5px;">diam nonummy nibh </tspan></text>
		</g>
		<g>
			
				<text transform="matrix(1 0 0 1 532.5748 359.6946)" style="fill:#0C0330; font-family:'Montserrat-Bold'; font-size:8.765px; letter-spacing:1;">Current Status</text>
		</g>
		<g>
			<rect x="204.027" y="136.068" style="fill:#CB52E8;" width="147.138" height="77.487"/>
			<g>
				<g>
					<rect x="217.005" y="161.795" style="fill:none;" width="73.452" height="9.779"/>
					<text transform="matrix(1 0 0 1 226.351 165.5049)" style="fill:#FFFFFF; font-family:'Montserrat-Regular'; font-size:5px;">Lorem ipsum dolor</text>
				</g>
				<g>
					
						<text transform="matrix(1 0 0 1 226.2751 156.7235)" style="fill:#FFFFFF; font-family:'Montserrat-Bold'; font-size:7.2959px; letter-spacing:1;">Products</text>
				</g>
			</g>
			<g>
				
					<text transform="matrix(1 0 0 1 227.9386 192.8998)" style="fill:#FFFFFF; font-family:'Montserrat-Bold'; font-size:21.9992px; letter-spacing:3;">123</text>
			</g>
		</g>
		<g>
			<rect x="503.209" y="135.055" style="fill:#FE5D89;" width="142.151" height="78.5"/>
			<g>
				
					<text transform="matrix(1 0 0 1 533.7507 195.6014)" style="fill:#FFFFFF; font-family:'Montserrat-Bold'; font-size:21.9992px; letter-spacing:3;">$2000</text>
			</g>
			<g>
				<g>
					<rect x="524.083" y="163.041" style="fill:none;" width="73.452" height="9.779"/>
					<text transform="matrix(1 0 0 1 533.4296 166.7511)" style="fill:#FFFFFF; font-family:'Montserrat-Regular'; font-size:5px;">Lorem ipsum dolor</text>
				</g>
				<g>
					
						<text transform="matrix(1 0 0 1 533.7501 156.7233)" style="fill:#FFFFFF; font-family:'Montserrat-Bold'; font-size:7.2959px; letter-spacing:1;">Earnings Balance</text>
				</g>
			</g>
		</g>
		<g>
			<rect x="356.107" y="136.068" style="fill:#FFFFFF;" width="142.151" height="77.487"/>
			<g>
				
					<text transform="matrix(1 0 0 1 369.5455 193.2709)" style="fill:#0C0330; font-family:'Montserrat-Bold'; font-size:18.2455px; letter-spacing:2;">1,234,567</text>
			</g>
			<g>
				<g>
					<g>
						<rect x="360.094" y="161.657" style="fill:none;" width="73.452" height="9.779"/>
						
							<text transform="matrix(1 0 0 1 369.4405 165.3668)" style="fill:#0C0330; font-family:'Montserrat-Regular'; font-size:5px;">Lorem ipsum dolor</text>
					</g>
					<g>
						
							<text transform="matrix(1 0 0 1 369.5448 155.3391)" style="fill:#0C0330; font-family:'Montserrat-Bold'; font-size:7.2959px; letter-spacing:1;">Downloads</text>
					</g>
				</g>
			</g>
		</g>
		<g>
			<rect x="204.027" y="324.74" style="fill:#FFFFFF;" width="294.232" height="81.862"/>
			<linearGradient id="SVGID_1_" gradientUnits="userSpaceOnUse" x1="352.0737" y1="351.4123" x2="349.8615" y2="410.477">
				<stop  offset="0" style="stop-color:#8AA4F8"/>
				<stop  offset="1" style="stop-color:#FFFFFF"/>
			</linearGradient>
			<polygon style="fill:url(#SVGID_1_);" points="465.743,348.795 449.49,368.405 431.988,341.722 414.068,376.12 403.65,359.725 
				390.732,384.479 355.276,332.181 328.222,375.799 318.221,363.261 300.302,390.908 270.297,345.259 246.544,376.12 
				231.541,356.189 209.041,383.433 209.041,401.259 492.04,401.259 492.04,381.565 			"/>
			<g style="opacity:0.5;">
				<g>
					<polyline style="fill:none;stroke:#919191;stroke-width:0.25;stroke-miterlimit:10;" points="492.04,339.49 492.04,401.259 
						209.041,401.259 209.041,339.49 					"/>
					
						<line style="fill:none;stroke:#919191;stroke-width:0.25;stroke-miterlimit:10;" x1="209.041" y1="390.965" x2="492.04" y2="390.965"/>
					
						<line style="fill:none;stroke:#919191;stroke-width:0.25;stroke-miterlimit:10;" x1="209.041" y1="380.67" x2="492.04" y2="380.67"/>
					
						<line style="fill:none;stroke:#919191;stroke-width:0.25;stroke-miterlimit:10;" x1="209.041" y1="370.375" x2="492.04" y2="370.375"/>
					
						<line style="fill:none;stroke:#919191;stroke-width:0.25;stroke-miterlimit:10;" x1="209.041" y1="360.08" x2="492.04" y2="360.08"/>
					
						<line style="fill:none;stroke:#919191;stroke-width:0.25;stroke-miterlimit:10;" x1="209.041" y1="349.785" x2="492.04" y2="349.785"/>
					
						<line style="fill:none;stroke:#919191;stroke-width:0.25;stroke-miterlimit:10;" x1="451.611" y1="339.49" x2="451.611" y2="401.259"/>
					
						<line style="fill:none;stroke:#919191;stroke-width:0.25;stroke-miterlimit:10;" x1="411.183" y1="339.49" x2="411.183" y2="401.259"/>
					
						<line style="fill:none;stroke:#919191;stroke-width:0.25;stroke-miterlimit:10;" x1="370.755" y1="339.49" x2="370.755" y2="401.259"/>
					
						<line style="fill:none;stroke:#919191;stroke-width:0.25;stroke-miterlimit:10;" x1="330.327" y1="339.49" x2="330.327" y2="401.259"/>
					
						<line style="fill:none;stroke:#919191;stroke-width:0.25;stroke-miterlimit:10;" x1="289.898" y1="339.49" x2="289.898" y2="401.259"/>
					
						<line style="fill:none;stroke:#919191;stroke-width:0.25;stroke-miterlimit:10;" x1="249.47" y1="339.49" x2="249.47" y2="401.259"/>
				</g>
			</g>
			<polyline style="fill:none;stroke:#FE5D89;stroke-width:2;stroke-linecap:round;stroke-miterlimit:10;" points="491.467,380.851 
				465.743,348.795 449.49,368.405 431.988,341.722 414.068,376.12 403.65,359.725 390.732,384.479 355.276,332.181 
				328.222,375.799 318.221,363.261 300.302,390.908 270.297,345.259 246.544,376.12 231.541,356.189 210.052,382.21 			"/>
			<path style="fill:#FE5D89;" d="M234.337,356.189c0,1.544-1.252,2.796-2.796,2.796s-2.796-1.252-2.796-2.796
				c0-1.544,1.252-2.796,2.796-2.796S234.337,354.645,234.337,356.189z"/>
			<circle style="fill:#FE5D89;" cx="246.601" cy="376.948" r="2.796"/>
			<path style="fill:#FE5D89;" d="M272.921,345.106c0,1.544-1.252,2.796-2.795,2.796c-1.544,0-2.796-1.252-2.796-2.796
				c0-1.544,1.252-2.796,2.796-2.796C271.669,342.311,272.921,343.562,272.921,345.106z"/>
			<path style="fill:#FE5D89;" d="M331.352,376.312c0,1.544-1.252,2.795-2.796,2.795c-1.544,0-2.796-1.252-2.796-2.795
				c0-1.544,1.252-2.796,2.796-2.796C330.1,373.516,331.352,374.768,331.352,376.312z"/>
			<path style="fill:#FE5D89;" d="M321.04,362.875c0,1.544-1.252,2.796-2.796,2.796c-1.544,0-2.796-1.252-2.796-2.796
				c0-1.544,1.252-2.796,2.796-2.796C319.788,360.08,321.04,361.331,321.04,362.875z"/>
			<path style="fill:#FE5D89;" d="M358.02,332.521c0,1.544-1.252,2.796-2.796,2.796c-1.544,0-2.796-1.252-2.796-2.796
				c0-1.544,1.252-2.796,2.796-2.796C356.768,329.725,358.02,330.977,358.02,332.521z"/>
			<path style="fill:#FE5D89;" d="M393.604,384.216c0,1.544-1.252,2.796-2.796,2.796c-1.544,0-2.796-1.252-2.796-2.796
				c0-1.544,1.252-2.796,2.796-2.796C392.353,381.421,393.604,382.672,393.604,384.216z"/>
			<path style="fill:#FE5D89;" d="M406.436,359.266c0,1.544-1.252,2.796-2.796,2.796c-1.544,0-2.796-1.252-2.796-2.796
				c0-1.544,1.252-2.796,2.796-2.796C405.184,356.47,406.436,357.722,406.436,359.266z"/>
			<path style="fill:#FE5D89;" d="M434.654,342.286c0,1.544-1.252,2.796-2.796,2.796c-1.544,0-2.796-1.252-2.796-2.796
				c0-1.544,1.252-2.796,2.796-2.796C433.402,339.49,434.654,340.742,434.654,342.286z"/>
			<circle style="fill:#FE5D89;" cx="449.502" cy="368.466" r="2.796"/>
			<path style="fill:#FE5D89;" d="M468.931,349.159c0,1.544-1.252,2.796-2.796,2.796c-1.544,0-2.796-1.252-2.796-2.796
				c0-1.544,1.252-2.796,2.796-2.796C467.679,346.364,468.931,347.615,468.931,349.159z"/>
			<path style="fill:#FE5D89;" d="M416.832,375.84c0,1.544-1.252,2.796-2.796,2.796c-1.544,0-2.795-1.252-2.795-2.796
				c0-1.544,1.252-2.796,2.795-2.796C415.58,373.044,416.832,374.296,416.832,375.84z"/>
			<path style="fill:#FE5D89;" d="M303.073,390.73c0,1.544-1.252,2.796-2.795,2.796c-1.544,0-2.796-1.252-2.796-2.796
				c0-1.544,1.252-2.796,2.796-2.796C301.822,387.935,303.073,389.186,303.073,390.73z"/>
		</g>
		<g>
			<path style="fill:#17133A;" d="M280.841,107.821h-14.526c-1.001,0-1.815-0.814-1.815-1.815v-7.797
				c0-1.001,0.814-1.815,1.815-1.815h14.526c1.001,0,1.815,0.814,1.815,1.815v7.797
				C282.656,107.007,281.842,107.821,280.841,107.821z M266.315,97.144c-0.587,0-1.065,0.478-1.065,1.065v7.797
				c0,0.587,0.478,1.065,1.065,1.065h14.526c0.587,0,1.065-0.478,1.065-1.065v-7.797c0-0.587-0.477-1.065-1.065-1.065H266.315z"/>
		</g>
		<g>
			<path style="fill:#17133A;" d="M273.554,103.159c-0.465,0-0.931-0.133-1.339-0.4l-6.12-3.996
				c-0.173-0.113-0.222-0.346-0.109-0.519c0.113-0.173,0.345-0.223,0.519-0.109l6.12,3.996c0.575,0.376,1.315,0.369,1.885-0.018
				l5.837-3.974c0.17-0.117,0.404-0.073,0.521,0.099c0.117,0.171,0.072,0.404-0.099,0.521l-5.837,3.974
				C274.515,103.017,274.035,103.159,273.554,103.159z"/>
		</g>
		<g>
			<g>
				<path style="fill:#17133A;" d="M267.37,105.656c-0.114,0-0.227-0.052-0.301-0.15c-0.124-0.166-0.09-0.401,0.076-0.525
					l4.379-3.273c0.167-0.123,0.401-0.09,0.525,0.076c0.124,0.166,0.09,0.401-0.076,0.525l-4.379,3.273
					C267.527,105.631,267.448,105.656,267.37,105.656z"/>
			</g>
			<g>
				<path style="fill:#17133A;" d="M279.714,105.656c-0.078,0-0.157-0.024-0.224-0.075l-4.379-3.273
					c-0.166-0.124-0.2-0.359-0.076-0.525c0.124-0.166,0.359-0.2,0.525-0.076l4.379,3.273c0.166,0.124,0.2,0.359,0.076,0.525
					C279.941,105.604,279.828,105.656,279.714,105.656z"/>
			</g>
		</g>
		<path style="fill:#FE5D89;" d="M575.61,237.69c-0.018,0-0.036,0.001-0.055,0.001v49.512h-49.59c0,0.045-0.003,0.09-0.003,0.135
			c0,27.42,22.228,49.648,49.648,49.648s49.648-22.228,49.648-49.648S603.03,237.69,575.61,237.69z"/>
		
			<ellipse transform="matrix(0.1713 -0.9852 0.9852 0.1713 193.894 805.2032)" style="fill:#10E5BC;" cx="575.61" cy="287.339" rx="39.347" ry="39.347"/>
		
			<ellipse transform="matrix(0.9418 -0.3362 0.3362 0.9418 -63.0938 210.2156)" style="fill:#FFFFFF;" cx="575.61" cy="287.339" rx="29.045" ry="29.045"/>
		<g>
			
				<text transform="matrix(1 0 0 1 551.9596 296.0344)" style="fill:#0C0330; font-family:'Montserrat-Bold'; font-size:23.7285px;">75%</text>
		</g>
		<g>
			<text transform="matrix(1 0 0 1 559.1841 304.4097)" style="fill:#0C0330; font-family:'Montserrat-Bold'; font-size:5.116px;">lorem ipsum</text>
		</g>
		<rect x="95.61" y="187.016" style="fill:#FFFFFF;" width="3.463" height="2.039"/>
		<rect x="95.61" y="189.887" style="fill:#FFFFFF;" width="3.463" height="5.881"/>
		<rect x="99.905" y="187.016" style="fill:#FFFFFF;" width="4.931" height="2.039"/>
		<rect x="99.905" y="189.887" style="fill:#FFFFFF;" width="4.931" height="5.881"/>
	</g>
</g>
</svg>
