<?xml version="1.0" encoding="utf-8"?>
<!-- Generator: Adobe Illustrator 27.5.0, SVG Export Plug-In . SVG Version: 6.00 Build 0)  -->
<svg version="1.1" id="Layer_1" xmlns="http://www.w3.org/2000/svg" xmlns:xlink="http://www.w3.org/1999/xlink" x="0px" y="0px"
	 viewBox="0 0 2000 2000" style="enable-background:new 0 0 2000 2000;" xml:space="preserve">
<g>
	<g id="XMLID_15_">
		<path style="fill:#B0745E;" d="M1370.519,728.425c-7.726,28.076-37.642,58.917-63.668,46.772
			c-0.401-12.851-0.128-3.041-1.352-51.233c18.182-4.901,31.983-6.789,38.796-25.277c3.228-8.741,25.412-65.21,25.412-74.482
			c0-26.165-27.57-41.473-48.123-27.306l-19.464,13.382c-0.008-0.209-1.082-30.206-1.082-30.415
			c9.303-10.794,3.833-4.228,23.521-28.522c31.596-27.453,80.7-4.973,80.7,36.498
			C1405.259,598.67,1373.309,717.672,1370.519,728.425z"/>
		<path style="fill:#945E4C;" d="M1305.5,723.964l1.082,42.58L1301.038,580l1.082,30.28l19.464-13.382
			c26.736-18.429,57.638,12.624,45.825,39.201C1336.664,719.345,1344.024,713.579,1305.5,723.964z"/>
		<path style="fill:#B0745E;" d="M698.963,580c0-191.487,6.047-220.151,15.14-252.103l111.385-106.52
			c48.112-45.74,100.221,4.326,140.583,4.326c63.393,0,74.034,1.932,90.974-3.919c101.767-35.634,78.94-37.125,228.854,106.248
			c7.225,25.185,10.83,50.64,11.22,69.344c11.016,512.866,42.81,484.202-128.96,624.11h-0.135v0.135
			c-46.664,37.992-87.245,78.943-168.024,78.943c-80.537,0-120.921-40.595-168.026-78.943v-0.135h-0.135
			C670.339,889.942,689.835,887.208,698.963,580z"/>
		<path style="fill:#343535;" d="M1285.898,328.032c-109.741-104.952-130.705-140.395-183.299-122.2
			c-39.099,13.691-50.884,19.871-68.806,19.871c-63.707,0-73.75,1.923-90.974-3.919c-101.668-35.705-79.097-36.971-228.717,106.114
			c25.547-90.704,90.297-173.973,145.314-205.74c51.492-29.694,230.196-29.393,281.167,0
			C1195.736,153.924,1260.349,237.329,1285.898,328.032z"/>
		<path style="fill:#343535;" d="M1301.038,579.866c-4.141-192.802-3.368-183.408-5.273-201.684
			c-11.108-105.966-87.951-217.3-155.182-256.024c-22.035-12.707-56.234-18.518-94.759-20.411v-0.54
			c80.108,0,105.563-3.729,145.45,16.085c69.168,34.142,161.806,187.819,161.806,364.166v57.99
			C1327.44,541.473,1322.206,555.311,1301.038,579.866z"/>
		<path style="fill:#AC4252;" d="M1685.886,1459.054l0.945-1.623l-386.062-230.07c-36.958,49.656-14.106,18.948-168.565,226.558
			l-112.466-136.394l-15.817,16.762v564.226c145.18,0,303.336,0.405,775.102,1.488
			C1779.022,1682.5,1789.971,1517.991,1685.886,1459.054z"/>
		<g>
			<path style="fill:#EFDBC4;" d="M1244.804,1141.524l-13.787,10.679v0.135l-211.283,165.186l112.468,136.394
				c165.463-222.402,133.658-179.655,168.565-226.556L1244.804,1141.524z"/>
			<path style="fill:#E9CFAE;" d="M763.036,1141.524l-56.099,85.838c29.014,39.096,0.004,0.094,168.567,226.556l112.599-136.394
				C977.154,1308.956,773.966,1149.931,763.036,1141.524z"/>
		</g>
		<path style="fill:#343535;" d="M954.175,101.746c-38.526,1.894-72.726,7.704-94.758,20.411
			C804.4,153.924,739.65,237.194,714.103,327.898c-13.604,47.8-10.969,57.761-15.14,251.968
			c-19.857-23.033-26.133-38.704-52.18-40.417c0-69.64-10.574-221.773,107.602-377.278c53.923-70.899,123.661-60.963,199.79-60.963
			V101.746z"/>
		<path style="fill:#945E4C;" d="M698.963,580l-5.543,186.544l1.081-42.58c-39.72-10.707-31.744-6.184-61.912-87.864
			c-11.679-26.281,18.838-57.804,45.825-39.201l19.466,13.382L698.963,580z"/>
		<path style="fill:#B0745E;" d="M646.783,539.448c25.484,1.677,31.338,16.242,52.18,40.417c0,0.209-1.074,30.206-1.082,30.415
			l-19.466-13.382c-26.734-18.429-57.636,12.624-45.825,39.201c30.118,81.541,22.132,77.141,61.912,87.864
			c-1.224,48.192-0.95,38.382-1.351,51.233c-26.407,12.323-55.988-18.862-63.668-46.772
			c-29.609-114.101-38.352-134.403-33.253-152.886C601.801,554.217,622.303,537.747,646.783,539.448z"/>
		<path style="fill:#A03F51;" d="M988.105,1317.524l-112.603,136.394c-168.591-226.502-139.875-187.897-168.564-226.558
			l-372.682,222.096c-125.58,48.798-113.28,219.796-113.28,450.544c487.986-1.109,632.751-1.488,782.943-1.488v-564.226
			L988.105,1317.524z"/>
		<path style="fill:#945E4C;" d="M770.065,1146.932c10.679-52.72,13.517-110.98,11.491-166.402l50.284,40.957h0.135v0.135
			c46.667,37.992,87.246,78.943,168.026,78.943c80.535,0,120.919-40.595,168.024-78.943v-0.135h0.135l50.286-40.957
			c-4.415,116.974,12.572,153.313,12.572,171.808c-238.85,186.739-206.01,159.598-227.097,181.947
			C982.135,1311.197,1016.455,1339.706,770.065,1146.932z"/>
	</g>
</g>
</svg>
